<?xml version="1.0" encoding="utf-8"?>
<!-- Generator: Adobe Illustrator 18.0.0, SVG Export Plug-In . SVG Version: 6.00 Build 0)  -->
<!DOCTYPE svg PUBLIC "-//W3C//DTD SVG 1.1//EN" "http://www.w3.org/Graphics/SVG/1.1/DTD/svg11.dtd">
<svg version="1.1" id="图层_1" xmlns="http://www.w3.org/2000/svg" xmlns:xlink="http://www.w3.org/1999/xlink" x="0px" y="0px"
	 viewBox="0 0 1280 800" enable-background="new 0 0 1280 800" xml:space="preserve">
<g>
	<g transform="scale(0.1953125, 0.1953125)">
		<path fill="#E10000" d="M3278.8,0c1056.7,396.7,1698.3,1663.3,1148.3,2690l-1340-1346.7L3598.8,830l-320-318.3
			c-176.7,173.3-456.7,210-646.7,133.3L1613.8,1665l576.7,575l385-383.3l1340,1345c-655,360-1565,246.7-2235-450L1353.8,3075
			c96.7,135,178.3,256.7,280,360c-8.3,10-36.7,33.3-36.7,33.3c-16.7-3.3-36.7-10-55-10c-173.3,0-311.7,150-311.7,323.3
			s141.7,313.3,313.3,313.3c173.3,0,320-141.7,320-315c0-20-5-38.3-8.3-58.3l50-48.3c771.7,520,1616.7,585,2525,41.7l375,376.7
			l513.3-506.7l-378.3-381.7C6027.1,1568.3,4582.1-38.3,3278.8,0L3278.8,0L3278.8,0z"/>
	</g>
</g>
</svg>
