<?xml version="1.0" encoding="utf-8"?>
<!-- Generator: Adobe Illustrator 18.0.0, SVG Export Plug-In . SVG Version: 6.00 Build 0)  -->
<!DOCTYPE svg PUBLIC "-//W3C//DTD SVG 1.1//EN" "http://www.w3.org/Graphics/SVG/1.1/DTD/svg11.dtd">
<svg version="1.1" id="图层_1" xmlns="http://www.w3.org/2000/svg" xmlns:xlink="http://www.w3.org/1999/xlink" x="0px" y="0px"
	 viewBox="0 0 48 48" enable-background="new 0 0 48 48" xml:space="preserve">
<path fill-rule="evenodd" clip-rule="evenodd" fill="#E61F19" d="M23.9,0c7.3,0,13.8,3.5,17.9,9l0.1,0H42l0.5,0.5l0.2,0.2l0.5,0.8
	l0,0.2c0,0-0.1,0.2-0.1,0.2c0,0,0,0.1,0,0.2c1.9,3.3,3,7.1,3,11.2c0,0.6,0,1.1-0.1,1.6l0,0.1l0.1,0.1l0.1,0.1l0,0.2L46.1,27L46,27.3
	l-0.2,0.1l-0.1,0l-0.2,0c-0.7,3-2.1,5.8-3.9,8.2l0.1,0.6l-0.3,0.5L40,38.3l-0.3-0.1l1,6.4l-1.5,0.2l0,0.1l0,0.6l-1.5,0.3l-0.1,0.1
	l0,0.7L36,47.1l-0.1,0l0,0.3l-3.4,0.4l0.1-1l0-0.2l-1.8-0.7l0.4,0.5l0,0.8l-1.1,0.1l-0.1,0.2l-2,0.3l-0.2-0.1l-0.1,0l-0.3,0.1
	l-0.3,0L25.2,48L25,47.8l-2.5,0c0,0-0.2,0.3-0.2,0.3c0,0-2.4-0.2-2.4-0.2c0,0-0.4-0.2-0.4-0.2l-0.2,0.1l-2-0.4l-0.1-0.1L16.1,47
	l0.1-0.8l0.3-0.5l-1.8,0.7l0.1,1.2l-3.4-0.5l0-0.3L10,46.3l0-0.8l-1.6-0.4l0-0.7l-1.5-0.3L8,37.8c0,0-0.1,0-0.1,0c0,0-0.1,0-0.1,0
	l-0.1,0L6.1,36l-0.1-0.2l0-0.1l0-0.4c-1.8-2.5-3.1-5.3-3.7-8.4l-0.3,0l-0.2-0.3c0,0-0.1-1.1-0.1-1.1c0,0,0-0.7,0-0.7l0-0.9l0-0.3
	l0.2,0c0-0.4,0-0.9,0-1.3c0-4.4,1.2-8.2,3.4-11.7l-0.1-0.2L5,10l1-1.4l0.2-0.1l0.2,0.1l0.1,0C10.5,3.4,16.8,0,23.9,0L23.9,0z"/>
<path fill-rule="evenodd" clip-rule="evenodd" fill="#FFFFFF" d="M24,5.7l1.2,3.6l3.8,0l-3.1,2.2l1.2,3.6L24,12.9l-3.1,2.2l1.2-3.6
	L19,9.3l3.8,0L24,5.7L24,5.7z M5.1,28.9L5.1,28.9c0.1,0,0.2,0,0.4,0.5c0.2,0.6,0.3,0.8,0.4,0.9c0.1,0.1,0.1,0.3,0.1,0.3
	c0,0-0.1,0-0.1,0c0,0-0.3-0.4-0.4-0.7c-0.1-0.4-0.2-0.6-0.3-0.8C5,29,5,28.9,5.1,28.9L5.1,28.9z M24,5.5c9,0,16.3,7.3,16.3,16.3
	c0,3.7-1.3,7.2-3.4,10l-0.1-0.5l-8.2-0.1l0,0.3l0,0l0.2-0.2l0.2,0.1v0.2l-0.1,0.2l-0.1,0.1l-0.1,0h-0.1l0,1.2h0.3v0.3l0.1,0l0.1-0.1
	l0,0l0-0.1l0,0l0.1,0v-0.7c0,0,0.1-0.3,0.5-0.3c0.3,0,0.4,0.3,0.4,0.3l0,0.6l0.1,0l0,0.1l0.1,0c0,0,0,0.1,0,0.1c0,0,0.1,0.1,0.1,0.1
	c0,0,0.1,0.1,0.1,0.1l3.4,0l0-0.4l0.2,0v0.1l1.5,0c-0.1,0.1-0.1,0.1-0.2,0.2l-1.3,0l0,0.1l1.1,0c0,0-0.1,0.1-0.1,0.1l-22.1-0.3
	c0,0-0.1-0.1-0.1-0.1l1.3,0v-0.2l-1.4,0c-0.1-0.1-0.1-0.1-0.2-0.2l0,0l1.6,0l0,0l0.2,0v0.4l3.3,0l0.2-0.3l0,0l0-0.2h0.1l0,0.1l0,0
	l0-0.6c0,0,0.1-0.3,0.4-0.3c0.3,0,0.4,0.4,0.4,0.4l0,0.6l0.1,0l0-0.1l0.1,0c0,0,0,0.1,0,0.1c0,0.1,0.1,0.1,0.1,0.1c0,0,0,0,0,0
	c0,0,0-0.1,0-0.1c0,0,0-0.1,0-0.1c0,0,0-0.1,0-0.1h0.3l0-1.3c0,0-0.2,0-0.2,0c-0.1-0.1-0.2-0.1-0.2-0.3c0-0.2,0.2-0.3,0.2-0.3l0,0
	l0.1,0.1l0.1,0.1l0.1,0v-0.1l0-0.1l0-0.1l0-0.1L11,31c0,0-0.1,0.4-0.1,0.6c-2-2.7-3.2-6.1-3.2-9.7C7.7,12.9,15,5.5,24,5.5L24,5.5z
	 M34.8,34.1c-0.1,0-0.1,0.1-0.2,0.1l-21.5-0.3c0,0-0.1-0.1-0.1-0.1L34.8,34.1L34.8,34.1z M34.4,34.4c-1.8,1.5-4,2.6-6.3,3.3l0.1,0.1
	c1.1-0.3,2.2-0.7,3.3-1.3L30.8,40l0.8-0.3l0.8-3.7c0.1-0.1,0.2-0.1,0.3-0.2l-0.9,3.8l0.9-0.4l0.9-4c4.1-3,6.8-7.9,6.8-13.4
	c0-0.4,0-0.9-0.1-1.3c0.5,0.5,2.5,2.6,2.8,2.9c0.4,0.4,2.3,2.6,2.3,2.6l0.1-0.9c0,0-2.3-2.5-2.6-2.8c-0.3-0.3-2-2.1-2.1-2.2
	c-0.1-0.1-0.5-0.4-0.6-0.6c0-0.2-0.1-0.4-0.1-0.6c0.5,0.5,2.7,2.7,3,3.1c0.3,0.4,2.4,2.7,2.4,2.7l0.1-0.6c0,0-2.2-2.4-2.7-2.9
	c-0.4-0.5-2.5-2.5-3-3.1c-1.7-7.3-8.2-12.8-16-12.8c-7.7,0-14.1,5.3-15.9,12.5c-0.5,0.5-2.6,2.5-3.1,3c-0.5,0.5-2.7,2.9-2.7,2.9
	l0.1,0.6c0,0,2.1-2.3,2.5-2.7c0.3-0.4,2.6-2.5,3.1-3c0,0.2-0.1,0.4-0.1,0.6c-0.2,0.2-0.6,0.5-0.6,0.6C7,20,5.3,21.7,5,22
	c-0.3,0.3-2.6,2.8-2.6,2.8l0.1,0.9c0,0,2-2.2,2.4-2.6c0.3-0.4,2.3-2.3,2.8-2.9c-0.1,0.6-0.1,1.1-0.1,1.7c0,5.4,2.6,10.2,6.6,13.2
	L15,39l0,0c0,0-0.1-0.1-0.1-0.2c0,0-0.2-0.2-0.2-0.3c0-0.1,0-0.3,0-0.3s-0.2-0.2-0.3-0.2c-0.1-0.1-0.5-0.5-0.5-0.6
	c0,0-0.1-0.1-0.2-0.1c-0.1,0,0,0.1,0,0.1c0,0.1,0.1,0.1,0.2,0.2c0.1,0.1,0,0.2,0.1,0.3c0.1,0.1,0,0.1-0.1,0c-0.1,0-0.1-0.2-0.1-0.2
	c0-0.1,0-0.2-0.1-0.2c-0.1-0.1-0.1-0.2-0.1-0.3c0-0.1,0.1-0.1,0.1-0.1c0,0,0.2-0.1,0.2-0.1s-0.4-0.3-0.5-0.4
	c-0.1-0.1-0.2-0.4-0.3-0.4c0,0-0.1,0-0.1,0c0,0-0.2-0.1-0.2-0.1c-0.1,0-0.1,0-0.1,0c0,0,0.1,0.2,0.1,0.2c0,0.1,0,0.2,0.1,0.3
	c0,0.1,0,0.3,0,0.3l-0.2-0.1l-0.4,0l-0.9-0.8h-0.2l-0.9-1l-0.1,0l-0.9-1.1l-0.1,0.1l0.9,1.1l0.2,0l1,1.1h0.2l0.9,0.8
	c0,0,0.4,0,0.4,0c0,0,0.9,0.7,1,0.8c0,0,0.8,0.5,1.1,0.8c0,0.1,0.2,1,0.8,1.5c0.6,0.5,1.3,1.1,2.3,1.3c1,0.2,1.6,0.2,2,0.2
	c0.3,0,1.1-0.1,1.5-0.2c0.4-0.1,0.7-0.2,0.8-0.3c0.1-0.1,0.4-0.2,0.4-0.2l0,0c0,0.1,0,0.2,0,0.3c0,0.1-0.2,0.2-0.7,0.4
	c-0.5,0.2-1.2,0.5-1.9,0.6c-0.7,0.1-1.3,0.3-2.7,0.1c-1.4-0.1-2.3-1-2.3-1l-0.1,0c0,0-0.3-0.3-0.5-0.5c-0.2-0.2-0.6-0.6-0.6-0.6
	l-0.1,0.1c0,0-0.5-0.7-0.8-1.5c-0.3-0.7-0.4-1.7-0.4-1.7l-0.3,0l0,0.2c0,0,0.1,0.7,0.3,1.2c0.2,0.5,0.3,1,1.3,2.1
	c0.9,1.1,2.1,1.6,2.1,1.6l0.2-0.1c0,0,0.1,0.1,0.5,0.2c0.4,0.1,1.9,0.2,2.2,0.2c0.3,0,1.5-0.2,2.2-0.4c0.6-0.2,1.3-0.7,1.6-0.9
	l0.1,0.2l-0.3,0.3l-0.1,0.1c0.4,0.4,1,0.7,1.6,0.7c0.6,0,1.1-0.3,1.5-0.7l0,0l-0.5-0.4l0.1-0.1c0.2,0.2,1,0.8,1.6,1
	c0.7,0.2,1.9,0.4,2.2,0.4c0.3,0,1.8,0,2.2-0.1c0.4-0.1,0.5-0.2,0.5-0.2l0.2,0.1c0,0,1.2-0.4,2.2-1.5c1-1.1,1.1-1.6,1.3-2.1
	c0.2-0.5,0.3-1.2,0.3-1.2l0-0.2l-0.3,0c0,0-0.1,1-0.5,1.7c-0.3,0.7-0.8,1.4-0.8,1.4l-0.1-0.1c0,0-0.4,0.4-0.6,0.6
	c-0.2,0.2-0.5,0.5-0.5,0.5l-0.1,0c0,0-1,0.9-2.4,1c-1.4,0.1-2,0-2.7-0.2c-0.7-0.1-1.4-0.4-1.9-0.7c-0.5-0.2-0.6-0.3-0.7-0.4
	c0,0,0-0.1,0-0.3l0,0c0,0,0.3,0.1,0.4,0.2c0.1,0.1,0.4,0.1,0.8,0.3c0.4,0.1,1.2,0.2,1.5,0.2c0.3,0,1,0.1,2-0.1
	c1-0.2,1.7-0.8,2.3-1.3c0.6-0.5,0.9-1.5,0.9-1.5l-0.4,0.2c0,0,0,0.2-0.2,0.5c-0.2,0.3-0.3,0.4-1,1c-0.7,0.5-1.6,0.8-2.1,0.9
	c-0.5,0.1-1.6,0.1-2.5-0.1c-0.9-0.2-1.7-0.7-1.7-0.8c0-0.3,0-0.5,0-0.5c0,0,0,0,0,0c0,0,0-0.1,0.1-0.1c0.2-0.1,0.3-0.1,0.5,0
	c0.1,0,0.2,0,0.3,0l0,0l0.5,0.1c0,0,0,0,0,0c0.2,0,0.3,0,0.5,0.1c0.1,0,0.2,0,0.3,0c0,0,0,0,0,0l0.6,0.1l0,0c0.3,0,0.5,0,0.7,0.1
	c0.3,0,0.7,0,0.7,0l0.1,0l0,0c0.1,0,0.3-0.1,0.5-0.1c0.3-0.1,0.8-0.2,0.8-0.2L30.5,40l0.1-0.6l-1.4,0.4l-0.1,0.1l0.1,0l0,0.3l-0.1,0
	l-0.1-0.2l-0.4-0.1l-0.2-0.5l0.4-0.3l-0.4-1l-0.5,0.1l-0.4-0.7l0.3-0.5l-0.6-0.6L27,36.7l-0.6-0.4l0.1-0.5l-0.9-0.4l-0.3,0.4
	l-0.7-0.1l-0.2-0.5h-0.8l-0.1,0.5l-0.8,0.2l-0.4-0.5l-0.7,0.3l0,0.6l-0.6,0.4l-0.5-0.3L19.8,37l0.3,0.5l-0.4,0.6l-0.5,0l-0.3,0.8
	l0.4,0.3l0,0.6l-0.6,0l0,0.2l-0.2,0l0-0.3l0.1,0l0,0l-1.4-0.5l0.1,0.6l-0.1,0.1c0,0,0.5,0.2,0.8,0.2c0.3,0.1,0.8,0.1,0.8,0.1l0,0
	c0.3,0,0.9,0,1.5,0c0,0,0,0,0,0l0.4,0c0,0,0,0,0,0c0.1,0,0.3,0,0.3,0c0.1,0,0.3,0,0.5-0.1l0,0l0.6-0.1l0,0c0.2,0,0.3,0,0.3-0.1
	c0.1,0,0.2,0.1,0.3,0.2c0,0,0,0,0,0c0,0,0,0.3,0,0.5c0,0-0.8,0.6-1.7,0.7c-0.9,0.1-2,0.1-2.5,0c-0.5-0.1-1.3-0.4-2.1-0.9
	c-0.7-0.5-0.8-0.6-1-1c-0.2-0.3-0.2-0.5-0.2-0.5l-0.1,0l0.9,0.4l-0.8-3.7c0.1,0.1,0.2,0.1,0.3,0.2l0.7,3.7l0.8,0.3l-0.6-3.4
	c1.1,0.6,2.2,1,3.4,1.3l0-0.1c-1.2-0.3-2.4-0.8-3.5-1.4l0,0l-0.9-0.5l0,0c-0.1-0.1-0.2-0.2-0.4-0.2l-0.9-0.7l0,0
	c-0.3-0.2-0.6-0.5-0.9-0.7L34.4,34.4L34.4,34.4z M10.5,43.8l0.3-3.7c0,0,0.5,0.4,0.5,0.4c0,0,0.1-0.1,0.1-0.1l0.5,0.4l-0.1,3.9
	L9,44.4l0.1-0.8L10.5,43.8L10.5,43.8z M12,45.1l0.1-4l0.9,0.4l0,4.2l-2.3-0.2l0.1-0.6L12,45.1L12,45.1z M17.1,46.2l0-0.9l1.5-0.6
	l-0.1,1.7L17.1,46.2L17.1,46.2z M27.3,40.2c-0.1-1.7-1.6-3.1-3.4-3.1c-1.7,0-3.2,1.3-3.4,3l-0.4,0c0.2-1.9,1.8-3.4,3.8-3.4
	c2,0,3.7,1.6,3.8,3.6L27.3,40.2L27.3,40.2z M25.9,40c-0.2-0.9-1.1-1.6-2.1-1.6c-1,0-1.8,0.7-2.1,1.6l-0.4,0c0.2-1.2,1.3-2.1,2.5-2.1
	c1.3,0,2.3,0.9,2.5,2.2L25.9,40L25.9,40z M20.7,46.9l0.1-1.6l0.3,0L21,46.8l2.2,0.2l0-0.8h0.4l0,1.1l-2-0.1l0,0.2L20,47.2l0-0.3
	L20.7,46.9L20.7,46.9z M14.9,45.9l-0.2-0.3l5.1-2.2l-0.3,0.5L14.9,45.9L14.9,45.9z M18.8,43.2l-4.4,1.9l0.1,0.3l4.9-2.1L18.8,43.2
	L18.8,43.2z M14.3,44.9l-0.1-0.3l3.8-1.7l0.8,0L14.3,44.9L14.3,44.9z M14.1,44.4L14,44l2.6-1.2l0.8,0L14.1,44.4L14.1,44.4z
	 M13.8,43.9l-0.1-0.3l1.9-0.9l0.5,0.1L13.8,43.9L13.8,43.9z M8,43.2l0.6-4.9l1.8,1.6l-0.2,3.6L8,43.2L8,43.2z M10.9,37.6v-0.9
	l0.2,0.1c0,0,0,1.5,0.4,2.2c0.4,0.7,0.7,1.4,1.1,1.7c0.3,0.3,0.5,0.6,1,0.9c0.5,0.2,1.2,0.7,1.4,0.7c0.2,0.1,0.5,0.2,0.5,0.2
	l-0.1,0.1c0,0-1.2-0.4-1.4-0.5c-0.2-0.2-0.5-0.3-0.5-0.3l0,4.3L12.1,46v0.4l2,0.2L14,45.2l-0.6-1.5l0.1-0.1l0.7,1.7l0.6,0.9l5.1-2.1
	l0,0.1l-0.9,0.4l-0.2,2.1l0.2,0.1l0,0.3L18,46.9l0-0.3l-1.3-0.2l0-1l-0.3,0.3l-1.6,0.6l-0.4-0.6l0,1l-2.6-0.3V46l-1.5-0.2l0-0.9
	l-1.7-0.2l0.1-1.1l-1.1-0.1l0.7-5.9l1.1,1c0,0-0.5-1-0.6-1.5c-0.2-0.6-0.3-1.3-0.3-1.3l0.3-0.5c0,0-0.1,1.1,0.2,1.9
	c0.3,0.8,0.6,1.3,0.8,1.6c0.2,0.4,1.1,1,1.1,1c0,0-0.6-1-0.8-1.9C9.9,37,10,36,10,35.9c0-0.1,0-0.4,0-0.4l0.2,0c0,0,0,1.7,0.2,2.2
	c0.2,0.5,0.1,0.7,0.4,1.2c0.2,0.4,0.5,1,0.7,1.2c0.2,0.2,0.8,0.6,0.8,0.6s-0.8-1.1-1-1.7C11.1,38.5,10.9,38.1,10.9,37.6L10.9,37.6z
	 M17.2,40L17.2,40l-0.2,0.1c0,0,1.2,0.8,1.6,0.9c0.3,0.1,1.2,0.1,1.4,0.1c0.1,0,1.6-0.1,1.7-0.1c0.1,0,0.4,0,0.4-0.1
	c0.1-0.1,0.2-0.2,0.2-0.2c0-0.1,0-0.1,0-0.1c0,0-0.1,0-0.2,0c0,0-0.2,0.2-0.2,0.2c-0.1,0-1.1,0.1-1.5,0.1c-0.4,0-1.2,0.1-1.5,0
	c-0.3-0.1-0.7-0.3-0.9-0.4C17.6,40.3,17.2,40,17.2,40L17.2,40z M18.1,39L17,38.6l0.1,0.4c0,0,0.6,0.2,0.9,0.3c0.3,0.1,1,0.3,1,0.3
	l0-0.3C19,39.4,18.4,39.2,18.1,39L18.1,39z M18.6,38.8l-1.7-0.6l0,0.3l1.7,0.7V39l-0.1-0.1V38.8L18.6,38.8z M17.8,38l-1-0.4l0.1,0.3
	c0,0,0.6,0.3,0.8,0.3c0.2,0.1,0.9,0.4,0.9,0.4l0.1-0.3C18.7,38.3,18.1,38.1,17.8,38L17.8,38z M17.9,37.5l-1.1-0.5l0.1,0.4
	c0,0,0.7,0.3,0.9,0.4c0.2,0.1,1.1,0.4,1.1,0.4l0.2-0.3C19,37.9,18.1,37.6,17.9,37.5L17.9,37.5z M14.1,36.9l-0.1-0.2l0.4,0.1l0.2,1.2
	c0,0-0.5-0.4-0.5-0.5C14,37.3,14.1,36.9,14.1,36.9L14.1,36.9z M13.3,35.7l0-0.2c0,0,0.1,0,0.2,0c0.1,0,0.6,0.4,0.6,0.4l0.2,0.7
	c0,0-0.4-0.1-0.5,0c-0.1,0.1-0.1,0.4-0.1,0.4s-0.3-0.3-0.4-0.4c-0.1-0.1-0.1-0.2-0.1-0.4C13.3,35.9,13.3,35.8,13.3,35.7L13.3,35.7z
	 M11.6,35.7l-0.2-0.5c0,0,0.4,0.1,0.4,0.1c0,0,0.5,0.6,0.6,0.7c0.1,0.1,0.4,0.1,0.4,0.1l0.2,0l0.1,0.1c0,0-0.1,0-0.2,0
	c0,0-0.3-0.1-0.3,0c0,0-0.1,0.1,0,0.2c0,0.1,0.2,0.6,0.2,0.6c0,0-0.3,0-0.4-0.1c-0.1-0.1-0.6-0.5-0.7-0.7
	C11.5,36,11.6,35.9,11.6,35.7L11.6,35.7z M10.5,34.4l-0.3-0.1c0,0,0.1,0.2,0.1,0.3s0.1,0.3,0.1,0.4c0.1,0.1,0.5,0.6,0.6,0.6
	c0.1,0,0.3,0.2,0.3,0.2s-0.1-0.4-0.1-0.5c0-0.1,0-0.2,0-0.3c0,0,0.1,0,0.1,0s0-0.2-0.3-0.5C10.7,34.3,10.5,34.5,10.5,34.4L10.5,34.4
	z M12.4,34.4l-0.6-0.4c0,0,0.1,0.3,0.1,0.5c0,0.2,0,0.5,0.1,0.6c0.1,0.1,0.5,0.6,0.6,0.6c0.1,0,0.5,0,0.5,0s0-0.5,0-0.6
	c0-0.1,0.1-0.1,0.1-0.1S12.5,34.5,12.4,34.4L12.4,34.4z M10.1,32.8l-0.4,0L9.6,33c0,0-0.1,0.5-0.1,0.6c0,0,0.4,0.5,0.6,0.6
	c0.2,0,0.9,0,1.1,0.1c0.2,0.1,0.4,0.1,0.4,0.1c0,0,0,0.1,0,0.1s0-0.2-0.1-0.3c-0.1-0.1-0.2,0-0.4-0.2c-0.1-0.2-0.2-0.6-0.3-0.7
	C10.8,33.2,10.2,32.8,10.1,32.8L10.1,32.8z M10.4,32.3l-0.3-0.5l-0.3,0.7c0,0,0.2,0,0.3,0.1c0.1,0,0.2,0.1,0.3,0.1
	C10.4,32.7,10.5,32.4,10.4,32.3L10.4,32.3z M9.5,29.9L7,36c0,0-0.4-0.5-0.4-0.5c0,0,0.1-0.4,0.1-0.6c0-0.1,2.3-6,2.3-6l1.1,2l-2.3,6
	l-0.5-0.6l2.4-5.9L9.5,29.9L9.5,29.9z M5.8,33.2l-0.1,0l0,0.1c0,0,0.4,0.6,0.5,0.7c0.1,0.2,0.3,0.4,0.3,0.4L6.6,34l-0.1,0
	c0,0-0.4-0.1-0.4-0.3C6,33.5,5.9,33.2,5.8,33.2L5.8,33.2z M3.7,28.7l-0.1-0.1l0,0.1c0,0,0.5,1.3,0.7,1.8c0.2,0.5,1,2,1.1,2.1
	c0.1,0.1,0.2,0.2,0.3,0.2c0.1,0,0.2,0.1,0.3,0.1C6,33,6.3,33.5,6.5,33.6c0.2,0.1,0.3,0.1,0.3,0.1s0.2-0.6,0.2-0.6
	c0,0-0.6-0.2-0.8-0.3c-0.2-0.1-0.5-0.3-0.6-0.3c0-0.1-0.6-0.9-1-1.9c-0.4-1-0.7-1.7-0.7-1.7C3.9,28.8,3.7,28.7,3.7,28.7L3.7,28.7z
	 M5.7,28L5.7,28l-0.2,0l0,0.2c0,0,0.4,1,0.5,1.3c0.1,0.3,0.5,1.1,0.6,1.3c0.1,0.1,0.2,0.3,0.2,0.3c0,0.1-0.1,0.5,0,0.9
	c0.1,0.4,0.4,0.8,0.4,0.8l0.2-0.4c0,0-0.2-0.3-0.2-0.6c0-0.3,0.1-0.4,0.1-0.5c-0.1-0.1-0.7-1.4-0.8-1.7c-0.2-0.4-0.4-1.1-0.4-1.2
	C5.8,28.2,5.7,28,5.7,28L5.7,28z M7.2,31.8l0-0.2l0.1-0.1l0,0.1l0.1,0.3c0,0-0.1,0.2-0.1,0.2C7.3,32.1,7.2,31.8,7.2,31.8L7.2,31.8z
	 M7.3,30.4l0-0.3c0,0,0.3,0.1,0.4,0.1c0.1,0,0.3,0,0.3,0c0,0,0.1,0.1,0.1,0.1c0,0-0.4,1.1-0.4,1.1S7.4,31,7.3,30.8
	C7.3,30.6,7.3,30.5,7.3,30.4L7.3,30.4z M8.1,28.5L8.1,28.5L8.1,28.5l0.4,0.4L8.1,30l-0.1,0.1c0,0-0.2-0.3-0.2-0.5c0-0.3,0-0.3,0-0.4
	C7.9,29.1,8,29,8,28.9C8,28.8,8.1,28.5,8.1,28.5L8.1,28.5z M6.2,28.3l0-0.3l0.4,0.3c0,0,0,0.4,0.2,0.7c0.2,0.3,0.7,0.7,0.7,0.7
	L7.7,30c0,0-0.4-0.1-0.5-0.1c-0.1,0,0,0.3,0,0.3c0,0-0.6-0.6-0.7-1.1C6.3,28.7,6.3,28.5,6.2,28.3L6.2,28.3z M7.1,27.2L7.1,27.2
	c-0.1,0-0.2,0.6-0.2,0.9c0,0.4,0.2,0.8,0.4,1c0.2,0.1,0.4,0.3,0.4,0.3c0,0,0-0.2,0.1-0.4c0.1-0.2,0.2-0.4,0.2-0.6
	c0-0.2,0-0.4-0.1-0.6c-0.1-0.2-0.3-0.2-0.4-0.3C7.3,27.4,7.1,27.2,7.1,27.2L7.1,27.2z M6,26.3L6.1,26c0,0,0.1,0,0.1,0.1
	c0,0,0.3,0.3,0.3,0.3s-0.1,0.4,0,0.6c0,0.1,0.2,0.5,0.2,0.5c0,0,0,0.1,0,0.2c0,0,0,0.4,0,0.4s-0.3-0.2-0.4-0.3c-0.1,0-0.3,0-0.3,0
	c0,0-0.3-0.9-0.3-1.1C5.8,26.5,5.9,26.4,6,26.3L6,26.3z M5,25.9L5,25.9c-0.1-0.1-0.1,0-0.1,0c0,0,0,0.8,0,1c-0.1,0.2-0.4,0.7-0.4,1
	c0,0.4,0.1,0.4,0.1,0.5c0,0.1,0.2,0.2,0.4,0.7c0.2,0.5,0.3,0.8,0.4,1c0.1,0.2,0.3,0.5,0.3,0.6c0.1,0.2,0,0.3,0.1,0.3
	c0,0.1,0.1,0.2,0.3,0.3c0.1,0.1,0.4,0.1,0.4,0.1c0,0,0.2-0.2,0-0.6c-0.1-0.4-0.5-1.1-0.7-1.5c-0.1-0.4-0.5-1-0.5-1.3
	c0-0.3,0-0.4,0.1-0.5c0-0.1,0.1-0.2,0-0.3c0-0.1-0.2-0.8-0.2-0.9C5.1,26.3,5,26,5,25.9L5,25.9z M2.9,25.7L2.9,25.7
	c0-0.1-0.1,0-0.1,0c0,0,0,0.1,0,0.1c0,0,0.2,0.8,0.2,0.9C3,26.8,3,26.9,3.1,27c0.1,0,0.2,0.1,0.3,0.2c0.1,0.1,0,0.2,0.1,0.4
	c0,0.2,0,0.3,0.2,0.4C3.8,28,3.9,28.2,4,28.2c0,0.1,0.5,1.3,0.5,1.4c0.1,0.2,0.7,1.5,0.7,1.6c0.1,0.1,0.2,0.6,0.2,0.7
	c0.1,0.2,0.3,0.4,0.5,0.5c0.2,0.1,0.4,0.2,0.5,0.2c0.1,0,0.1-0.1,0.1-0.1c0-0.1-0.2-0.5-0.3-0.6c-0.1-0.1-0.6-0.2-0.7-0.3
	c-0.1-0.1-0.2-0.4-0.3-0.6c-0.1-0.2-0.6-1.4-0.7-1.6c-0.1-0.2-0.4-1.1-0.4-1.2c0-0.1,0-0.5,0-0.7c-0.1-0.2-0.3-0.6-0.6-0.8
	c-0.3-0.2-0.3-0.1-0.4-0.2C3.1,26.4,3,26.1,3,26C3,26,2.9,25.7,2.9,25.7L2.9,25.7z M7.4,25.7L7.4,25.7c-0.1-0.1-0.3,0.1-0.3,0.1
	c0,0.1-0.1,0.2-0.1,0.3c-0.1,0.1-0.2,0.2-0.3,0.4c0,0.2,0,0.7,0,0.7c0,0,0.2-0.3,0.3-0.2c0.2,0.1,0.4,0.4,0.4,0.4c0,0,0.1,0,0.1,0
	c0,0.1,0.2-0.1,0.2-0.5c0-0.4-0.1-0.7-0.2-0.9C7.5,25.9,7.4,25.8,7.4,25.7L7.4,25.7z M6.1,24.7l-0.2-0.2l-0.1,0.1l-0.1,0.2
	c0,0-0.3,0.4-0.3,0.6c0,0.1,0.1,0.5,0.1,0.6c0,0.1,0.1,0.4,0.1,0.4s0.2-0.5,0.4-0.5c0.2,0,0.5,0.4,0.5,0.4s0.1-0.1,0.1-0.3
	c0-0.2-0.1-0.6-0.2-0.8C6.3,24.9,6.1,24.7,6.1,24.7L6.1,24.7z M4.6,24.4l0-0.1c0,0,0-0.1,0-0.1c0,0,0.1,0.1,0.1,0.1l0.1,0.8
	c0,0,0.1,0.3,0,0.5c-0.1,0.1-0.2,0.3-0.2,0.5c0,0.2,0,0.6-0.1,0.7c-0.1,0.1-0.1,0.3-0.2,0.3C4.3,27.1,4,27,4,26.7
	c0-0.3,0-0.7,0.1-1.1c0.1-0.4,0.4-0.6,0.4-0.7C4.6,24.8,4.6,24.4,4.6,24.4L4.6,24.4z M3.6,25.2L3.5,25l-0.4,0.5c0,0,0.1,0.5,0.2,0.7
	c0.1,0.2,0.2,0.3,0.3,0.3c0.1,0,0.3-0.2,0.3-0.7C3.8,25.4,3.7,25.2,3.6,25.2L3.6,25.2z M3.6,25l-0.1-0.1l1.1-1.2v0.1
	c0,0-0.1,0.1-0.2,0.2c0,0.1,0,0.7-0.2,0.9c-0.2,0.2-0.3,0.2-0.4,0.2C3.8,25.1,3.6,25,3.6,25L3.6,25z M6.7,24.2l0.1-0.3l0.1,0
	c0,0,0.1,0.2,0.2,0.3c0.1,0.1,0.2,0.2,0.3,0.4c0.1,0.2,0,0.8,0,0.8s-0.2,0-0.3,0.1C7,25.6,7,25.8,7,25.8s-0.1-0.4-0.2-0.7
	c-0.1-0.2-0.4-0.4-0.4-0.4s0.1-0.2,0.1-0.2C6.6,24.4,6.7,24.3,6.7,24.2L6.7,24.2z M5.7,23.6l-0.2-0.5c0,0,0,0.3-0.1,0.3
	c-0.1,0.1-0.2,0.3-0.2,0.5c0,0.3,0.1,0.9,0.2,0.9c0,0,0.2-0.6,0.4-0.6c0.2,0,0.4,0.2,0.4,0.2l0.2-0.3c0,0-0.1-0.2-0.3-0.3
	C6,23.9,5.7,23.7,5.7,23.6L5.7,23.6z M6.4,22.3l-0.3-0.2l-0.5,0.6c0,0,0.1,0.5,0.3,0.7c0.2,0.2,0.5,0.4,0.5,0.4s0.3-0.2,0.3-0.6
	c0-0.3-0.1-0.4-0.1-0.4C6.5,22.8,6.5,22.5,6.4,22.3L6.4,22.3z M6.8,22l0.1-0.2c0,0,0.2,0.5,0.3,0.9c0.1,0.4,0,0.4,0,0.7
	c0,0.3,0,0.4,0,0.5c0,0.1-0.1,0.2-0.1,0.2S7,23.9,7,23.8c0-0.1-0.1-0.1-0.1-0.1l-0.2,0.3c0,0,0-0.2,0-0.2c0,0,0.1-0.2,0.1-0.3
	c0-0.1,0-0.3,0-0.4c0-0.1-0.2-0.4-0.1-0.5C6.6,22.4,6.8,22,6.8,22L6.8,22z M2.4,21.6L2.4,21.6l0.1-0.1l0.1,0l0.1,0.1
	c0,0-0.1,0.5,0,0.7c0.1,0.2,0.2,0.4,0.2,0.4s0,0.1,0,0.1c0,0-0.2,0.3-0.2,0.3l-0.1,0c0,0,0-0.7,0-0.8C2.3,22.1,2.4,21.6,2.4,21.6
	L2.4,21.6z M3,16.8l0.1-0.2c0,0,0.1,0,0.1,0.1c0,0.1-0.1,0.9-0.2,1.4c-0.1,0.5-0.2,1.7-0.3,1.8c0,0.2-0.1,0.7,0,1.1
	c0.1,0.3,0.4,0.6,0.4,0.6c0,0,0.3,0.2,0.3,0.3c0,0,0,0.1,0,0.1c0,0-0.5,0.5-0.5,0.5s-0.2-0.4-0.2-0.6c0-0.2,0-0.4-0.1-0.5
	c-0.1-0.1-0.2-0.3-0.3-0.4c-0.1-0.1,0.1-1.7,0.2-2.1c0-0.4,0.2-1.1,0.2-1.3C2.8,17.4,3,16.8,3,16.8L3,16.8z M5,17.1L5,17.1
	c0.1-0.1,0.2-0.1,0.2,0c0,0.1-0.3,1.3-0.3,1.7c-0.1,0.4-0.2,1.8-0.2,1.8c0,0-0.9,1.1-0.9,1.1c0,0,0-0.1,0-0.2c0-0.1,0.1-0.4,0.2-0.6
	c0.1-0.1,0.4-0.5,0.4-0.5c0-0.1,0.2-1.4,0.2-1.5c0-0.2,0.3-1.5,0.3-1.5C4.9,17.2,5,17.1,5,17.1L5,17.1z M3.7,16.4l0-0.1l0.1,0l0.1,0
	l0,0.1c0,0-0.3,1.2-0.4,1.6c-0.1,0.5-0.3,1.8-0.3,2c0,0.1,0.1,0.3,0.1,0.4c0.1,0.1,0.3,0.4,0.3,0.4l-0.1,0.5c0,0-0.1,0.2-0.1,0.2
	c0,0-0.5-0.4-0.6-0.8C2.9,20.4,3,20.2,3,20.1c0-0.1,0.2-1.6,0.3-1.7c0-0.2,0.2-1.1,0.2-1.3C3.5,17,3.7,16.4,3.7,16.4L3.7,16.4z
	 M4.1,16.6L4.1,16.6l0.1-0.1l0.1,0.1c0,0,0,0.1,0,0.1c0,0-0.3,1-0.4,1.5c-0.1,0.5-0.2,1.5-0.2,1.5l0.1,0.1l0.1,0
	c0,0,0.2-1.4,0.2-1.6c0-0.2,0.1-0.8,0.2-0.9c0-0.1,0.1-0.4,0.1-0.4c0,0,0.1-0.1,0.1-0.1c0,0,0.1,0.1,0.1,0.1c0,0,0,0.1,0,0.1
	c0,0-0.2,0.8-0.3,1.1c0,0.3-0.2,1.4-0.2,1.6c0,0.2-0.1,0.5-0.1,0.6c-0.1,0.1-0.2,0.3-0.2,0.3c0,0-0.3-0.2-0.4-0.3
	c0-0.1-0.1-0.3-0.1-0.3c0-0.1,0.1-0.1,0.1-0.2c0-0.1,0.2-1.1,0.2-1.3c0-0.1,0.1-0.7,0.1-0.8c0-0.1,0.1-0.5,0.1-0.7
	C4,16.8,4.1,16.6,4.1,16.6L4.1,16.6z M5.4,19.6l0.1-0.1c0,0,0.2,0.2,0.1,0.2c0,0-0.4,0.4-0.4,0.4s0-0.2,0-0.3
	C5.3,19.8,5.4,19.6,5.4,19.6L5.4,19.6z M6,18l-0.1-0.3l-0.1,0.1c0,0-0.1,0.2-0.2,0.3c-0.1,0.1-0.2,0.3-0.2,0.3c0,0.1,0,0.8,0,0.8
	s0.1-0.1,0.2-0.1c0,0,0.3,0.3,0.3,0.3L6.3,19c0,0,0-0.5-0.1-0.6c0,0,0,0-0.1-0.1C6.1,18.2,6,18.1,6,18L6,18z M6.9,17.4L7.3,17
	c0,0,0.2,0.6,0.1,0.9c-0.1,0.3-0.8,0.9-0.9,0.9c0,0-0.1-0.4-0.1-0.4s0.2-0.2,0.3-0.3C6.8,18,6.8,17.5,6.9,17.4L6.9,17.4z M6.2,16.4
	l0-0.2h0.1c0,0,0,0.1,0.1,0.2c0,0.1,0.3,0.3,0.3,0.5c0,0.2,0.1,0.6,0,0.7c-0.1,0.1-0.2,0.5-0.2,0.5S6.3,18.1,6.3,18
	c-0.1,0-0.1-0.1-0.1-0.1c0,0-0.1-0.4-0.2-0.4c-0.1,0-0.3,0.3-0.3,0.3s0-0.6,0.2-0.9C5.9,16.7,6.1,16.4,6.2,16.4L6.2,16.4z M7.9,16.6
	l-0.1-0.8c0,0-0.3,0.3-0.5,0.4c-0.2,0.1-0.2,0.2-0.3,0.3C7,16.6,7,17,7,17s0.3-0.3,0.4-0.2c0.1,0,0.1,0.2,0.1,0.2
	c0,0,0.1,0.2,0.1,0.2c0,0,0,0.4,0,0.4s0.1-0.3,0.1-0.5C7.8,17,7.9,16.7,7.9,16.6L7.9,16.6z M8.2,14.4l0-0.4c0,0-0.2,0.2-0.3,0.2
	c-0.1,0-0.2,0-0.3,0c-0.2,0.1-0.5,0.4-0.7,0.7c-0.1,0.3-0.2,0.8-0.2,0.9c0,0.1-0.3,0.4-0.3,0.4l0.1,0.2l0-0.1c0,0,0.2-0.2,0.3-0.3
	c0-0.1,0.1-0.2,0.2-0.2c0.1,0,0.3,0,0.5-0.1c0.2,0,0.5-0.4,0.6-0.6C8.2,14.8,8.2,14.5,8.2,14.4L8.2,14.4z M7.5,14L7.5,14
	c0-0.1-0.1,0.1-0.2,0.1c-0.1,0-0.4-0.1-0.7,0.6C6.2,15.4,6.4,16,6.4,16s0.2-0.3,0.2-0.7c0-0.4,0.2-0.4,0.3-0.6
	c0.2-0.2,0.2-0.3,0.3-0.4C7.4,14.1,7.5,14,7.5,14L7.5,14z M6.4,13.9l0.1-0.2h0.1c0,0-0.6,1.5-0.7,1.5c-0.1,0-0.4,0.2-0.4,0.3
	c-0.1,0.1-0.5,0.7-0.7,0.7c-0.2-0.1-0.4-0.6-0.1-1c0.2-0.4,0.8-0.5,1.1-0.7C6.1,14.3,6.3,14,6.4,13.9L6.4,13.9z M4.2,13.7l0-0.1
	l0.1,0c0,0-0.3,0.7-0.3,0.9c0,0.2,0.3,0.6,0.3,0.7c0,0.1,0,0.7,0,0.7l-0.9-0.1c0,0,0.2-0.9,0.4-1.2C3.9,14.4,4.2,13.7,4.2,13.7
	L4.2,13.7z M9.3,13.3l0.1-0.2c0,0-0.4,0.1-0.5,0.1c-0.1,0-0.3,0-0.4,0C8.4,13.4,8,13.8,8,13.9c0,0.1,0.3-0.1,0.4,0
	c0,0.2,0,0.5,0,0.6c0,0.1,0,0.3,0.1,0.3c0,0,0.1-0.2,0.3-0.3c0.2-0.1,0.4-0.5,0.4-0.7C9.2,13.7,9.3,13.4,9.3,13.3L9.3,13.3z M5,12.3
	L5,12.3c0.1,0,0.1,0,0.1,0c0,0-0.3,0.6-0.3,0.8c0.1,0.2,0.3,0.8,0.3,1.1c0,0.3-0.4,0.8-0.5,0.8c-0.1,0-0.3-0.2-0.3-0.5
	c0-0.2,0.2-0.6,0.3-0.7c0-0.2-0.1-0.6-0.1-0.6C4.4,13.3,4.9,12.3,5,12.3L5,12.3z M6.7,13.4l0.6-1.2c-0.1,0-0.4,0.3-0.5,0.4
	c-0.1,0.1-0.6,0.2-0.9,0.5c-0.4,0.3-0.6,0.6-0.7,0.8c0,0.2,0.1,0.4,0.2,0.4c0.1,0,0.5-0.3,0.8-0.6C6.5,13.4,6.7,13.4,6.7,13.4
	L6.7,13.4z M8.3,13.2l0.1-0.6c0,0-0.4,0.2-0.6,0.3c-0.2,0.1-0.3,0.1-0.4,0.2c-0.1,0.1-0.3,0.4-0.4,0.6c0,0.1-0.1,0.3-0.1,0.3
	c0.1,0,0.2-0.1,0.3-0.2c0.1-0.1,0.2-0.2,0.2-0.2c0.1,0,0.1,0.2,0.2,0.3c0.1,0,0.2-0.2,0.2-0.3C7.9,13.5,8.2,13.3,8.3,13.2L8.3,13.2z
	 M6,10.7l0-0.2c0,0-0.3,0.4-0.5,0.7c-0.1,0.3-0.2,0.3-0.2,0.4c0,0,0.2,0.5,0,0.9c-0.2,0.4-0.2,0.8-0.1,0.9c0,0.1,0.4,0.1,0.6-0.3
	C6,12.6,6,12.1,6,12c0-0.1-0.2-0.6-0.2-0.7C5.8,11.1,5.9,10.8,6,10.7L6,10.7z M10.4,11.6l-0.1-0.2c-0.1,0-0.3,0.2-0.4,0.2
	c-0.1,0-0.5,0-0.7,0.1C9.1,11.9,9,12,8.9,12.3c-0.1,0.3,0,0.5,0,0.6c0,0.1,0.6,0,0.7,0c0,0,0.5-0.5,0.6-0.8
	C10.3,11.9,10.4,11.7,10.4,11.6L10.4,11.6z M9.2,11.7l0.1-0.4c0,0-0.3,0.2-0.5,0.2c-0.1,0-0.3,0-0.4,0.1c-0.1,0-0.5,0.5-0.6,0.7
	c-0.1,0.2,0,0.4,0,0.4c0,0,0.3,0,0.4-0.1c0.1-0.1,0.2-0.1,0.3-0.1c0,0,0.1,0.2,0.1,0.3c0,0.1,0,0.3,0,0.3c0,0,0.1,0,0.1,0
	s0-0.2,0-0.3c0-0.1-0.1-0.3,0-0.4C8.8,12.1,9.1,11.8,9.2,11.7L9.2,11.7z M8.2,10.8l0.2-0.2c0.1,0,0,0.1,0,0.1c0,0-0.6,1-0.7,1
	c0,0-0.3,0.1-0.5,0.3c-0.2,0.2-0.3,0.4-0.4,0.4c-0.1,0-0.5,0.2-0.6,0c-0.1-0.2-0.1-0.5,0.2-0.7c0.3-0.3,0.5-0.4,0.8-0.4
	c0.3-0.1,0.5-0.1,0.6-0.2C7.9,11,8.1,10.9,8.2,10.8L8.2,10.8z M6.9,10.7l0-0.5c0,0-0.2,0.3-0.2,0.3c-0.1,0-0.3,0-0.3,0.1
	c0,0-0.2,0.3-0.2,0.5c0,0.2,0,0.4,0,0.5c0,0.1,0.2,0.2,0.3,0.1c0.1-0.1,0.2-0.2,0.3-0.4C6.8,11,6.9,10.8,6.9,10.7L6.9,10.7z
	 M6.3,8.6L6.3,8.6C6.3,8.6,6.1,8.8,6,8.8C6,8.8,5.9,9,5.9,9c0,0,0.4,0.4,0.4,0.5c0,0.1,0.1,0.5,0.1,0.5c0,0-0.3-0.2-0.4-0.3
	c0-0.1-0.4-0.2-0.4-0.2c0,0-0.2,0.3-0.2,0.3c0,0-0.2,0.2-0.2,0.2c0,0,0.1,0.2,0.2,0.2c0.1,0,0.5,0,0.7,0.1c0.2,0,0.3,0,0.3,0
	c0.1,0,0.2-0.2,0.2-0.3c0-0.1-0.1-0.6-0.1-0.7c0-0.1-0.1-0.5-0.1-0.5C6.4,8.7,6.3,8.6,6.3,8.6L6.3,8.6z M11.2,10.9l0.6-0.8
	c0,0-0.2,0.2-0.3,0.2c0,0-0.5,0.4-0.6,0.5c-0.1,0.1-0.3,0.3-0.3,0.4c0,0.1,0,0.2,0.1,0.2C10.7,11.5,11.1,11,11.2,10.9L11.2,10.9z
	 M10,10.2l0-0.4c0,0-0.1,0.2-0.1,0.2c0,0-0.4,0.1-0.5,0.2c-0.1,0.1-0.3,0.3-0.3,0.4c0,0-0.2,0.2-0.3,0.4c-0.1,0.2-0.1,0.4-0.1,0.4
	S9.2,11,9.3,11c0.2,0.1,0.1,0.2,0.1,0.2s0.5-0.4,0.5-0.6C10,10.5,10,10.4,10,10.2L10,10.2z M9.1,9.7l0.2-0.1c0,0,0.1,0.1,0.1,0.1
	s-0.5,0.8-0.6,0.7c-0.1,0-0.3-0.1-0.5,0c-0.1,0.1-0.4,0.5-0.5,0.5C7.6,11,7.2,11,7.2,11S7,10.8,7.3,10.6c0.3-0.2,0.4-0.3,0.8-0.4
	c0.3-0.1,0.5-0.1,0.5-0.1C8.7,10.1,9.1,9.7,9.1,9.7L9.1,9.7z M6.9,9l0.2-0.2c0,0,0.1,0,0.1,0l0.1,0.1L7.3,8.9c0,0-0.2,0.2-0.2,0.3
	c0,0-0.2,0.3-0.2,0.3L6.8,9.4c0,0,0-0.1,0-0.2C6.8,9.1,6.9,9,6.9,9L6.9,9z M11.5,9.3l0-0.3c-0.1,0-0.2,0.3-0.3,0.3
	c-0.1,0-0.5-0.1-0.6,0c-0.2,0.1-0.4,0.5-0.4,0.6c0,0.1,0.1,1.1,0.1,1.2c0,0.1,0,0.3-0.1,0.3c-0.1,0-0.1,0.2-0.1,0.2s0.2-0.1,0.3-0.1
	c0,0,0-0.1,0.1-0.3c0.1-0.2,0.3-0.4,0.5-0.5s0.3-0.3,0.4-0.4c0.1-0.1,0.2-0.3,0.2-0.4C11.5,9.7,11.5,9.4,11.5,9.3L11.5,9.3z
	 M12.1,6.8l-0.2-0.1c0,0-1.1,0.9-1.4,1.2c-0.3,0.3-1,1-1,1C9.5,9,9.1,9.1,8.9,9.1c-0.1,0-0.5,0.2-0.6,0.4C8.2,9.6,8,9.8,8.1,9.9
	c0,0.1,0.4,0.1,0.5,0C8.6,9.8,8.8,9.6,9,9.5c0.2-0.1,0.5-0.1,0.5-0.1s1-1,1.2-1.2C10.8,8.1,12.1,7,12.1,7S12.2,6.9,12.1,6.8
	L12.1,6.8z M10.6,5.3l0.1-0.1c0,0,0.1,0,0.1,0.1c0,0,0,0.1-0.1,0.2c0,0-1.3,1.3-1.5,1.4C9.1,7,8.1,8,8,8.2C7.8,8.5,7.8,8.7,7.8,8.8
	c0,0.1,0,0.6,0,0.8c0,0.2,0,0.5-0.3,0.6c-0.2,0.1-0.4-0.1-0.4-0.2c0-0.1,0-0.5,0.2-0.7C7.3,9.1,7.5,9,7.5,8.8c0-0.1,0.1-0.6,0.1-0.6
	S8.6,7.1,9,6.8c0.3-0.3,0.9-0.8,1.2-1.1C10.4,5.5,10.6,5.4,10.6,5.3L10.6,5.3z M11.6,5.8l0.1,0c0,0,0,0.1,0,0.1c0,0-1.1,0.9-1.3,1.1
	c-0.1,0.1-0.9,0.9-0.9,0.9c0,0-0.1,0.1-0.1,0.1c0,0,0.1,0,0.1,0c0,0,0.7-0.6,0.9-0.8c0.2-0.2,0.5-0.5,0.6-0.5
	c0.1-0.1,0.3-0.3,0.4-0.4c0.1,0,0.1,0,0.2,0c0.1,0,0.1,0.1,0.1,0.1c0,0-0.6,0.5-0.7,0.6c-0.1,0.1-0.7,0.6-0.8,0.7
	c-0.1,0.1-0.6,0.6-0.6,0.6c0,0.1-0.4,0.4-0.6,0.4c-0.2,0-0.3-0.1-0.3-0.1c0-0.1-0.1-0.3,0-0.4C9,8.2,9.7,7.5,9.8,7.4
	c0.1-0.1,0.5-0.4,0.6-0.5c0.1-0.1,0.5-0.4,0.6-0.5C11.1,6.2,11.5,5.9,11.6,5.8L11.6,5.8z M13,3.7L13,3.7c-0.1-0.1-0.9,0.4-1.2,0.6
	C11.5,4.6,11,5,11,5l0.4,0.4c0,0-1.1,0.9-1.6,1.4C9.2,7.3,8.6,8,8.5,8S8.2,8.2,8.1,8.4C8,8.6,8,9.3,8,9.3s0.1,0,0.2,0
	c0,0,0.4-0.3,0.4-0.3s0-0.6,0-0.8c0-0.1,1-1.1,1.2-1.2c0.2-0.2,1.3-1.1,1.5-1.3C11.4,5.6,11.8,5.6,12,5c0.2-0.6,0-0.5,0.1-0.6
	c0.1-0.1,0.2-0.3,0.5-0.5C12.9,3.8,13,3.8,13,3.7L13,3.7z M12.7,9.2l0.1-0.7c0,0-0.3,0.1-0.4,0.2c-0.1,0.1-0.6,0.6-0.6,0.6
	s0,0.4,0,0.5c0,0,0,0.1,0,0.1s0.2,0,0.3,0c0,0,0.6-0.3,0.7-0.5C12.6,9.4,12.7,9.4,12.7,9.2L12.7,9.2z M12.3,7.9V7.5
	c0,0-0.3,0.2-0.5,0.2c-0.2,0.1-0.5,0.2-0.7,0.5C11,8.5,11,9,11,9s0.1,0,0.1,0c0,0,0.3-0.3,0.5-0.3c0.2,0.1,0.1,0.3,0.1,0.3
	s0.5-0.5,0.6-0.6C12.4,8.3,12.3,8.1,12.3,7.9L12.3,7.9z M13.9,7.7L14,7.6c0,0-0.2,0-0.2,0c0,0-0.3,0.4-0.5,0.5
	c-0.1,0.1-0.6,0.3-0.6,0.3l0,0.1c0,0,0.1-0.1,0.1-0.1c0,0,0.1,0,0.2,0.1c0,0.1-0.1,0.3-0.1,0.4c0,0.1-0.1,0.3-0.1,0.3
	c0,0.1,0.6-0.3,0.7-0.5c0.1-0.2,0.3-0.3,0.3-0.5C13.9,8,13.9,7.8,13.9,7.7L13.9,7.7z M13.8,7.1l-0.1-0.7c0,0-0.4,0.1-0.6,0.2
	c-0.2,0.1-0.4,0.2-0.5,0.4c-0.1,0.2-0.1,0.2-0.1,0.2s0.2,0,0.2,0c0,0,0,0.8,0,0.8s0.3,0,0.4-0.1c0.1-0.1,0.5-0.4,0.6-0.5
	C13.7,7.3,13.8,7.2,13.8,7.1L13.8,7.1z M12.5,5.2l-0.4,0.2c0,0-0.3,0.4-0.2,0.6c0.2,0.2,0.5,0,0.6,0c0.1,0,0.2-0.1,0.4-0.1
	c0.2,0,0.4,0.1,0.4,0.1s0.6-0.3,0.8-0.4c0.2-0.1,0.7-0.4,0.7-0.4c0,0,0-0.1-0.1-0.1c0,0-0.6,0.2-0.7,0.2c-0.2,0-0.9-0.1-0.9-0.1
	C13,5.1,12.7,5.1,12.5,5.2L12.5,5.2z M14.9,7.8c0.3-0.2,0.5-0.4,0.7-0.7c0,0-0.6-0.1-0.8-0.1c-0.2,0-0.7,0.2-0.8,0.2
	c0,0.1,0,0.2,0,0.2c0,0,0.1,0,0.1,0c0,0,0,0.3,0,0.4c0,0.2,0,0.4,0,0.4S14.6,7.9,14.9,7.8L14.9,7.8z M15.2,5.9
	c0.5-0.2,0.9-0.1,1.4,0c0,0-0.1,0.2-0.2,0.4c-0.1,0.1-0.2,0.5-0.5,0.6c-0.3,0.1-0.8,0-1-0.1c-0.2,0-0.4,0-0.4,0S14.7,6,15.2,5.9
	L15.2,5.9z M16.8,5.7l-0.3-0.1c0,0,0.3-0.2,0.6-0.2c0.3,0.1,0.4,0.2,0.5,0.3c0.1,0.1,0.4,0.1,0.4,0.1c0,0,0.1,0.1,0.1,0.1
	c0,0-0.6,0.4-0.8,0.5c-0.2,0-0.9,0.1-0.9,0.1s0-0.1,0-0.2C16.6,6.3,16.9,6,16.8,5.7L16.8,5.7z M15.5,5.6l0.2-0.5
	c0,0-0.7,0.2-1.2,0.5c-0.5,0.3-0.9,0.7-0.9,0.7l0.3,0.1l0,0.5l0.4-0.2c0,0,0.1-0.4,0.4-0.6C15,5.7,15.5,5.6,15.5,5.6L15.5,5.6z
	 M16.1,4.3l-0.4,0.1c-0.1,0-0.8-0.2-1-0.2c-0.2,0-0.8,0-1,0.1c-0.2,0.1-0.4,0.3-0.3,0.4C13.5,4.9,13.8,5,13.9,5
	c0.2,0,0.4-0.1,0.6-0.1c0.2,0,0.4,0,0.5,0.1c0.1,0,0.6-0.2,0.7-0.3c0.1,0,0.5-0.3,0.5-0.3s0,0,0-0.1C16.3,4.3,16.2,4.3,16.1,4.3
	L16.1,4.3z M14.5,3.1V2.9c0,0-0.6,0.3-0.8,0.4c-0.2,0.1-0.4,0.2-0.4,0.3c0,0-0.1,0.4-0.2,0.5c-0.1,0.1-0.5,0.2-0.7,0.4
	c-0.2,0.2-0.2,0.4-0.2,0.5c0,0,0.3,0.1,0.4,0.1c0.1,0,0.4-0.1,0.6-0.2c0.1-0.2,0.3-0.4,0.4-0.6c0-0.2,0-0.3,0.1-0.4
	c0.1-0.1,0.3-0.3,0.4-0.4C14.2,3.2,14.4,3.1,14.5,3.1L14.5,3.1z M15.9,5.2l-0.1-0.3c0,0,0.6-0.3,0.6-0.3c0.1,0,0.2-0.1,0.3-0.1
	c0.2,0,0.4,0.1,0.5,0.1c0.1,0,0.2,0.1,0.3,0.2c0,0-0.1,0.2-0.2,0.3c-0.1,0.1-0.1,0.2-0.1,0.2s-0.4-0.1-0.7,0
	c-0.2,0.1-0.5,0.3-0.5,0.3l-0.5,0c0,0,0-0.1,0-0.2C15.8,5.4,15.9,5.3,15.9,5.2L15.9,5.2z M15.8,2.2L16.4,2l0,0.1l-0.1,0.1
	c0,0-0.4,0-0.6,0.3c-0.2,0.3-0.5,1.1-0.8,1.3C14.6,4,14,4.2,13.9,4c-0.1-0.2,0-0.4,0.2-0.5c0.2-0.1,0.5-0.3,0.7-0.4
	C14.9,3,15,2.6,15,2.6C15.1,2.5,15.5,2.3,15.8,2.2L15.8,2.2z M19,4.9L19,4.9c-0.1,0-0.2,0.2-0.4,0.4c-0.2,0.1-0.7,0.3-0.7,0.3
	s0.3,0,0.4,0.1C18.4,5.8,18.4,6,18.4,6s0.3,0,0.5,0c0.1,0,0.3,0,0.4-0.1c0.1-0.1,0.1-0.2,0.3-0.3c0.2-0.1,0.3-0.3,0.3-0.3
	c0,0-0.1-0.1-0.3-0.1C19.4,5.2,19,4.9,19,4.9L19,4.9z M17.5,4.5l-0.2-0.2c0,0,0,0,0.3-0.1C17.8,4.2,17.9,4,18.2,4
	c0.3,0,0.5,0.1,0.6,0.1c0.1,0,0.4,0.1,0.4,0.2c0,0.1-0.1,0.3-0.3,0.4C18.7,4.8,18.7,5,18.7,5c0,0-0.7,0.3-0.8,0.3
	c-0.1,0-0.3,0-0.3,0c0,0,0.1-0.1,0.1-0.2c0.1-0.1,0.2-0.3,0.1-0.4C17.7,4.6,17.6,4.6,17.5,4.5L17.5,4.5z M17.9,3.6l0.2,0.1l-1.4,0.5
	c0,0-0.2-0.2-0.5-0.1c-0.3,0.1-0.6,0.1-0.8,0c-0.1-0.1-0.3-0.2-0.3-0.3c0.1-0.1,0.3-0.3,0.5-0.4c0.2-0.1,0.5-0.1,0.8,0
	c0.3,0.1,0.6,0.2,0.8,0.3C17.4,3.7,17.9,3.6,17.9,3.6L17.9,3.6z M21.9,4.9l-0.2-0.2c0,0-0.3,0.3-0.7,0.4C20.5,5.2,20,5,20,5
	s0,0.2,0,0.2c0,0.1-0.4,0.4-0.4,0.4s0.7-0.2,1-0.2c0.3,0,0.6-0.1,0.7-0.1c0,0,0.2-0.1,0.3-0.3C21.7,4.9,21.9,4.9,21.9,4.9L21.9,4.9z
	 M20.3,3.9l0.2-0.1c0,0-0.2,0-0.3,0c-0.1,0-0.1-0.1-0.6-0.1c-0.4,0-0.9,0.3-0.9,0.3s0.5,0.1,0.6,0.3c0.1,0.2-0.2,0.5-0.2,0.5
	s0.3,0.1,0.3,0.1c0,0,0.2-0.1,0.2-0.2c0-0.1,0.1-0.4,0.2-0.5C20,4,20.2,3.9,20.3,3.9L20.3,3.9z M21.6,4.3l0.2-0.2c0,0,0-0.1-0.1-0.1
	c-0.1,0-0.3-0.2-0.6-0.2c-0.3,0.1-0.5,0.1-0.7,0.3C20,4.3,20,4.4,20,4.5c0,0.1-0.1,0.1-0.1,0.2c0,0,0.3,0.3,0.6,0.3
	c0.3-0.1,0.6-0.2,0.8-0.3C21.4,4.5,21.6,4.3,21.6,4.3L21.6,4.3z M17.2,2.9l0.4-0.1c0.4,0,0.7,0.1,0.8,0.2c0.1,0.1,0.2,0.2,0.4,0.3
	c0.2,0.1,0.6,0.1,0.6,0.1l-0.9,0.3c0,0-0.1-0.2-0.4-0.2c-0.3-0.1-0.5,0.1-0.8,0c-0.3-0.1-0.4-0.2-0.4-0.3C16.9,3.1,17,3,17.2,2.9
	L17.2,2.9z M18.5,1.5l0-0.2c0,0-0.6,0.2-0.9,0.2c-0.2,0.1-0.7,0.2-0.7,0.2c-0.1,0.1,0,0.2,0,0.2c0,0-0.1,0.3-0.6,0.4
	C15.7,2.6,15.6,3,15.6,3c0,0,0,0.1,0.1,0.2c0.1,0,0.6,0,0.8-0.1c0.2-0.2,0.5-0.4,0.5-0.5c0.1-0.1,0.1-0.3,0.3-0.5
	c0.2-0.2,0.2-0.3,0.5-0.3C18.1,1.6,18.4,1.6,18.5,1.5L18.5,1.5z M23,3.8l0.4-0.3c0,0-0.2,0-0.2-0.1c-0.1,0-0.4-0.2-0.9-0.2
	c-0.5,0-0.9,0.4-0.9,0.4s0.2,0.1,0.3,0.1C21.7,3.7,22,3.9,22,4c0,0.1-0.1,0.4-0.1,0.4c-0.1,0,0.2,0,0.3,0c0.1,0,0.4-0.1,0.6-0.2
	C22.8,4,22.9,3.9,23,3.8L23,3.8z M19.1,2.5c-0.1,0-0.2,0-0.3,0c-0.1,0.1-0.2,0.1-0.2,0.2c0,0.2,0.2,0.4,0.4,0.4c0.1,0,0.6,0,0.7,0
	c0.1,0,0.6,0,0.7,0c0.1,0,0.5-0.1,0.8-0.2c0.4,0,0.8-0.1,1-0.1c0.2,0,0.9,0,1,0c0.1,0,0.2-0.1,0.2-0.1c0,0-0.1-0.1-0.1-0.1
	c-0.1,0-1.4,0.1-2,0.2c-0.6,0.1-1,0.2-1.1,0.2c-0.1,0-0.4-0.1-0.5-0.1C19.6,2.7,19.4,2.6,19.1,2.5L19.1,2.5z M22.9,1.7l0.8,0
	l0.1,0.1l-0.1,0.1c0,0-1.5,0.1-1.8,0.1c-0.3,0.1-1.3,0.2-1.4,0.2c-0.1,0.1-0.1,0.2,0,0.2c0,0,1.2-0.1,1.5-0.2c0.4,0,1.3-0.1,1.5-0.1
	c0.1,0,0.2,0.1,0.2,0.1v0.1l-0.1,0.1c0,0-1.3,0-1.8,0.1c-0.5,0.1-1.1,0.2-1.3,0.2c-0.1,0-0.5,0-0.5,0c0-0.1-0.2-0.1-0.1-0.3
	c0.1-0.1,0.1-0.2,0.2-0.3c0.2-0.1,0.2-0.2,0.6-0.2c0.4,0,1.2-0.1,1.3-0.1C22.2,1.7,22.6,1.7,22.9,1.7L22.9,1.7z M19.7,2.4L19,2.2
	c0,0,0-0.4,0.3-0.5c0.3-0.2,0.9-0.2,1.3-0.3c0.4-0.1,1.2-0.2,1.5-0.2c0.4,0,1.7-0.1,1.7-0.1l0.1,0.1l0,0.1l0,0.1
	c0,0-1.3,0.1-1.7,0.1c-0.4,0-1.2,0.1-1.5,0.2c-0.3,0.1-0.6,0.3-0.7,0.4C19.7,2.2,19.7,2.4,19.7,2.4L19.7,2.4z M21.2,42.5l0.8-0.4
	l0,0c0.5,0.6,1.2,0.9,1.9,0.9c0.7,0,1.4-0.3,1.9-0.8l0,0l0.7,0.4l0,0c-0.6,0.7-1.6,1.2-2.6,1.2C22.8,43.9,21.8,43.3,21.2,42.5
	L21.2,42.5z M19.2,43l-0.1-0.2c0,0,0.4,0,0.7,0c0.2-0.1,0.9-0.2,0.9-0.2l0.1,0c0.7,1,1.8,1.7,3.2,1.7c1.2,0,2.3-0.6,3-1.5l0,0
	l0.8,0.1l0.4,0.1l0.3,0.1l-0.1,0.1h-0.5l-0.3,0.4l0.3,0.6l-0.6,0.6l-0.5-0.3l-0.7,0.4l0.1,0.5l-0.7,0.3l-0.4-0.4l-0.8,0.1l-0.1,0.6
	l-0.9,0l-0.1-0.5l-0.7-0.2l-0.4,0.4l-0.8-0.4l0-0.6l-0.5-0.4l-0.5,0.3L19.8,44l0.3-0.6L19.8,43L19.2,43L19.2,43z M21.3,0.8l2.4-0.2
	l0.2,0.1l0,0.2l-0.1,0.1l-2.4,0.2l-1.6,0.3c0,0-0.5,0.2-0.6,0.3c-0.1,0.1-0.4,0.5-0.4,0.6c0,0.1-0.5,0.5-0.6,0.5
	c-0.2,0-0.5-0.1-0.5-0.4c0-0.3,0.4-0.4,0.5-0.5c0.2,0,0.5-0.1,0.7-0.2c0.1-0.1,0.3-0.4,0.4-0.4C19.3,1.1,20.8,0.8,21.3,0.8L21.3,0.8
	z M24.9,40.3l0,1l-0.1,0.2c0,0-0.5,0.2-0.6,0.2c-0.2,0-0.7,0-1-0.1c-0.2,0-0.3-0.2-0.4-0.3c0,0,0,0,0,0l0-1.1c0,0,0,0,0,0
	c0,0,0,0,0,0l0-0.1c0,0,0,0,0,0c0,0,0-0.1,0-0.1c0-0.1,0.4-0.4,0.9-0.4c0.5,0,0.6,0,0.8,0.1c0.2,0.1,0.3,0.2,0.4,0.3
	C24.9,40.2,24.9,40.3,24.9,40.3L24.9,40.3z M23.8,40l0.1,0.2c0,0-0.5,0.1-0.5,0.5c0,0.5,0.4,0.5,0.4,0.6l0,0.1c0,0-0.5-0.1-0.5-0.7
	C23.2,40.1,23.8,40,23.8,40L23.8,40z M26.9,47.1l0-1.6l-0.3,0l0,1.4L24.4,47l0-0.8l-0.4,0l0,1.1l2-0.1l0,0.2l1.5-0.1l0-0.3
	L26.9,47.1L26.9,47.1z M32.7,46.2l0.2-0.3l-5-2.3l0.3,0.5L32.7,46.2L32.7,46.2z M28.8,43.4l4.3,2L33,45.7l-4.9-2.2L28.8,43.4
	L28.8,43.4z M33.3,45.1l0.1-0.3l-3.8-1.7l-0.8,0L33.3,45.1L33.3,45.1z M33.5,44.6l0.1-0.3L31,43.1l-0.8,0L33.5,44.6L33.5,44.6z
	 M33.8,44.1l0.1-0.3l-1.9-0.9L31.6,43L33.8,44.1L33.8,44.1z M37.2,44.1L37,40.4c0,0-0.5,0.4-0.5,0.4c0,0-0.1-0.1-0.1-0.1l-0.5,0.4
	l0,3.9l2.7-0.3L38.5,44L37.2,44.1L37.2,44.1z M35.6,45.3l0-4l-0.9,0.4L34.6,46l2.3-0.2l0-0.6L35.6,45.3L35.6,45.3z M30.5,46.4l0-0.9
	l-1.4-0.7l0.1,1.7L30.5,46.4L30.5,46.4z M30.5,40.2L30.5,40.2l0.2,0.1c0,0-1.3,0.8-1.6,0.8c-0.3,0.1-1.2,0-1.4,0
	c-0.1,0-1.6-0.1-1.6-0.1c-0.1,0-0.4,0-0.4-0.1c-0.1-0.1-0.2-0.2-0.2-0.2c0-0.1,0-0.1,0-0.1c0,0,0.1,0,0.2,0c0,0,0.2,0.2,0.2,0.2
	c0.1,0,1.1,0.1,1.5,0.2c0.4,0,1.2,0.1,1.5,0c0.3,0,0.7-0.3,0.9-0.4C30.1,40.5,30.5,40.2,30.5,40.2L30.5,40.2z M29.6,39.2l1.1-0.4
	l-0.1,0.4c0,0-0.6,0.2-0.9,0.3c-0.3,0.1-0.9,0.3-0.9,0.2l0.1-0.3C28.9,39.4,29.3,39.3,29.6,39.2L29.6,39.2z M29.1,38.9l1.7-0.6
	l0,0.3L29,39.2l0-0.1l0.1-0.1L29.1,38.9L29.1,38.9z M29.9,38.2l1-0.4l-0.1,0.3c0,0-0.6,0.3-0.8,0.3c-0.2,0.1-0.9,0.3-0.9,0.3l0-0.3
	C29.1,38.4,29.6,38.3,29.9,38.2L29.9,38.2z M29.9,37.6l1.1-0.5l-0.1,0.4c0,0-0.7,0.3-1,0.4c-0.2,0.1-1,0.3-1,0.3l-0.2-0.4
	C28.8,37.9,29.6,37.7,29.9,37.6L29.9,37.6z M33.7,37.1l0.1-0.2L33.4,37l-0.2,1.2c0,0,0.5-0.4,0.5-0.5C33.7,37.5,33.7,37.2,33.7,37.1
	L33.7,37.1z M38.7,34.6l-0.1-0.1l-0.9,1.1l-0.1,0l-1,1l-0.2,0l-0.9,0.8l-0.4,0l-0.2,0c0,0-0.1-0.2,0-0.3c0-0.1,0-0.2,0.1-0.3
	c0-0.1,0.1-0.2,0.1-0.2c0,0,0-0.1-0.1,0c-0.1,0-0.2,0.1-0.3,0.1c0,0-0.1,0-0.1,0c0,0-0.2,0.3-0.3,0.4c-0.1,0.1-0.5,0.4-0.5,0.4
	s0.2,0.1,0.2,0.1c0,0,0.1,0.1,0.1,0.1c0,0.1,0,0.2-0.1,0.3C34,37.9,34,38,34,38.1c0,0.1-0.1,0.2-0.1,0.2c-0.1,0-0.2,0-0.1,0
	c0.1-0.1,0-0.3,0.1-0.3c0.1-0.1,0.2-0.1,0.2-0.2c0-0.1,0.1-0.1,0-0.1c-0.1,0-0.2,0-0.2,0c0,0-0.4,0.5-0.5,0.6
	c-0.1,0.1-0.3,0.2-0.3,0.2s0,0.2,0,0.3c0,0.1-0.1,0.2-0.2,0.3c0,0-0.2,0.2-0.2,0.2s1.3-0.9,1.4-0.9c0.1-0.1,0.9-0.7,1-0.7
	c0,0,0.4,0,0.4,0l0.9-0.8l0.2,0l1-1l0.2,0L38.7,34.6L38.7,34.6z M34.5,36l0-0.2c0,0-0.1,0-0.2,0c-0.1,0-0.6,0.4-0.6,0.4l-0.2,0.7
	c0,0,0.4-0.1,0.5,0c0.1,0.1,0.1,0.4,0.1,0.4s0.3-0.3,0.4-0.4c0.1-0.1,0.1-0.2,0.1-0.4C34.5,36.2,34.5,36,34.5,36L34.5,36z M36.2,36
	l0.2-0.5c0,0-0.4,0.1-0.4,0.1c0,0-0.5,0.6-0.6,0.6c-0.1,0.1-0.4,0.1-0.4,0.1l-0.2,0l-0.1,0.1c0,0,0.1,0,0.2,0c0,0,0.3-0.1,0.3,0
	c0,0,0,0.1,0,0.2c0,0.1-0.2,0.6-0.2,0.6c0,0,0.3,0,0.4-0.1c0.1-0.1,0.7-0.4,0.7-0.7C36.2,36.3,36.2,36.2,36.2,36L36.2,36z
	 M37.4,34.7l0.3-0.1c0,0-0.1,0.2-0.1,0.3c0,0.1-0.1,0.3-0.2,0.4c-0.1,0.1-0.5,0.6-0.6,0.6c-0.1,0-0.3,0.2-0.3,0.2s0.1-0.4,0.1-0.5
	c0-0.1,0-0.2,0-0.3c0,0-0.1,0-0.1,0s0-0.2,0.3-0.5C37.1,34.6,37.3,34.8,37.4,34.7L37.4,34.7z M35.4,34.7l0.6-0.3
	c0,0-0.1,0.3-0.1,0.5c0,0.2,0,0.5-0.1,0.6c-0.1,0.1-0.5,0.6-0.6,0.6c-0.1,0-0.5,0-0.5,0s0-0.5,0-0.6c0-0.1,0-0.1,0-0.1
	S35.3,34.8,35.4,34.7L35.4,34.7z M37.7,33.1l0.4,0l0.1,0.2c0,0,0.1,0.5,0.1,0.6c0,0-0.4,0.5-0.6,0.6c-0.2,0-0.9,0-1.1,0.1
	c-0.2,0-0.4,0.1-0.4,0.1c0,0,0,0.1,0,0.1s0-0.2,0.1-0.3c0.1-0.1,0.2,0,0.4-0.2c0.1-0.2,0.2-0.5,0.3-0.7C37,33.5,37.6,33.2,37.7,33.1
	L37.7,33.1z M37.4,32.6l0.3-0.5l0.3,0.8c0,0-0.2,0-0.3,0.1c-0.1,0-0.2,0.1-0.3,0.1C37.5,33,37.4,32.7,37.4,32.6L37.4,32.6z
	 M38.4,30.3l2.3,6.1c0,0,0.4-0.5,0.4-0.5c0,0,0-0.4-0.1-0.6c0-0.1-2.2-6-2.2-6l-1.1,1.9l2.2,6.1l0.5-0.6l-2.3-5.9L38.4,30.3
	L38.4,30.3z M42,33.6l0.1,0l0,0.1c0,0-0.4,0.6-0.5,0.7c-0.1,0.2-0.3,0.4-0.3,0.4l-0.1-0.5l0.1,0c0,0,0.4-0.1,0.5-0.3
	C41.8,33.9,41.9,33.6,42,33.6L42,33.6z M44.2,29.2l0.1,0l0,0.1c0,0-0.5,1.3-0.7,1.8c-0.2,0.5-1,2-1.1,2.1c-0.1,0.1-0.2,0.2-0.3,0.2
	c-0.1,0-0.2,0-0.3,0.1c-0.1,0.1-0.4,0.5-0.5,0.6c-0.2,0.1-0.3,0.1-0.3,0.1s-0.2-0.6-0.2-0.6c0,0,0.6-0.2,0.8-0.3
	c0.2-0.1,0.5-0.3,0.6-0.3c0-0.1,0.6-0.9,1-1.8c0.4-1,0.7-1.6,0.7-1.7C44,29.3,44.2,29.2,44.2,29.2L44.2,29.2z M42.2,28.4L42.2,28.4
	l0.2,0l0,0.2c0,0-0.4,1-0.5,1.3c-0.1,0.3-0.5,1.1-0.6,1.3c-0.1,0.1-0.2,0.3-0.2,0.3c0,0.1,0.1,0.5,0,0.9c-0.1,0.4-0.4,0.8-0.4,0.8
	l-0.2-0.4c0,0,0.2-0.3,0.2-0.5c0-0.3-0.1-0.4,0-0.5c0.1-0.1,0.7-1.4,0.9-1.7c0.2-0.4,0.4-1.1,0.5-1.2C42.1,28.6,42.2,28.4,42.2,28.4
	L42.2,28.4z M40.6,32.2l0-0.2l-0.1-0.1l-0.1,0l-0.1,0.3c0,0,0.1,0.2,0.1,0.2C40.5,32.4,40.6,32.2,40.6,32.2L40.6,32.2z M40.6,30.8
	l0-0.3c0,0-0.3,0.1-0.4,0.1c-0.1,0-0.3,0-0.3,0c0,0-0.1,0.1-0.1,0.1c0,0,0.4,1.1,0.4,1.1s0.3-0.3,0.3-0.6
	C40.6,31,40.5,30.9,40.6,30.8L40.6,30.8z M39.8,28.9L39.8,28.9L39.8,28.9l-0.4,0.4l0.4,1.1l0.1,0.1c0,0,0.2-0.3,0.2-0.5
	c0-0.3,0-0.3,0-0.4c0-0.1-0.1-0.2-0.1-0.3C39.9,29.1,39.8,28.9,39.8,28.9L39.8,28.9z M41.7,28.7l0-0.3l-0.4,0.3c0,0,0,0.4-0.2,0.7
	c-0.2,0.3-0.7,0.7-0.7,0.7l-0.1,0.3c0,0,0.4-0.1,0.5-0.1c0.1,0,0,0.3,0,0.3c0,0,0.6-0.6,0.7-1.1C41.6,29.1,41.7,28.9,41.7,28.7
	L41.7,28.7z M40.8,27.6L40.8,27.6c0.1,0,0.2,0.6,0.2,1c0,0.4-0.2,0.8-0.4,1c-0.2,0.1-0.4,0.3-0.4,0.3c0,0,0-0.2-0.1-0.4
	C40.1,29.3,40,29,40,28.9c0-0.2,0-0.4,0.1-0.6c0.1-0.2,0.3-0.2,0.4-0.3C40.6,27.8,40.8,27.6,40.8,27.6L40.8,27.6z M42,26.7l-0.1-0.3
	c0,0-0.1,0-0.1,0.1c0,0-0.3,0.3-0.3,0.3s0.1,0.4,0,0.6c0,0.1-0.2,0.5-0.2,0.5c0,0,0,0.1,0,0.2c0,0,0,0.4,0,0.4s0.3-0.2,0.4-0.3
	c0.1,0,0.3,0,0.3,0c0,0,0.3-0.9,0.3-1.1C42.1,26.9,42,26.8,42,26.7L42,26.7z M42.8,29.3L42.8,29.3c-0.1,0-0.2,0-0.4,0.5
	c-0.2,0.6-0.3,0.8-0.4,0.9C42,30.9,42,31,42,31.1c0,0,0.1,0,0.1,0c0,0,0.3-0.4,0.4-0.7c0.1-0.4,0.3-0.6,0.3-0.8
	C42.9,29.4,42.9,29.3,42.8,29.3L42.8,29.3z M42.9,26.4L42.9,26.4c0.1-0.1,0.1,0,0.1,0c0,0-0.1,0.8,0,1c0.1,0.2,0.4,0.7,0.4,1
	c0,0.4-0.1,0.4-0.1,0.5c0,0.1-0.2,0.2-0.4,0.7c-0.2,0.5-0.3,0.8-0.4,1c-0.1,0.2-0.3,0.4-0.3,0.6c-0.1,0.2,0,0.3-0.1,0.3
	c0,0.1-0.1,0.2-0.3,0.3c-0.1,0.1-0.4,0.1-0.4,0.1c0,0-0.2-0.2,0-0.6c0.2-0.4,0.5-1.1,0.7-1.5c0.2-0.4,0.5-1,0.5-1.3
	c0-0.3,0-0.4-0.1-0.5c0-0.1-0.1-0.2,0-0.3c0-0.1,0.2-0.8,0.3-0.9C42.9,26.7,42.9,26.4,42.9,26.4L42.9,26.4z M45.1,26.2L45.1,26.2
	c0-0.1,0.1,0,0.1,0c0,0,0,0.1,0,0.1c0,0-0.2,0.8-0.2,0.9c0,0.1-0.1,0.2-0.2,0.2c-0.1,0-0.3,0.1-0.3,0.2c-0.1,0.1,0,0.2-0.1,0.4
	c0,0.2,0,0.3-0.2,0.4c-0.2,0.1-0.3,0.2-0.3,0.3c0,0.1-0.5,1.3-0.6,1.4c-0.1,0.2-0.7,1.5-0.8,1.6c-0.1,0.1-0.2,0.6-0.3,0.7
	c-0.1,0.2-0.3,0.4-0.5,0.5c-0.2,0.1-0.4,0.1-0.5,0.1c-0.1,0-0.1-0.1-0.1-0.1c0-0.1,0.2-0.5,0.3-0.6c0.1-0.1,0.6-0.2,0.7-0.3
	c0.1-0.1,0.3-0.4,0.3-0.6c0.1-0.2,0.7-1.3,0.7-1.6c0.1-0.2,0.4-1.1,0.4-1.2c0-0.1,0-0.5,0.1-0.7c0.1-0.2,0.3-0.6,0.6-0.8
	c0.3-0.2,0.3-0.1,0.4-0.2c0.1-0.1,0.2-0.4,0.2-0.5C45,26.5,45.1,26.2,45.1,26.2L45.1,26.2z M40.5,26.1L40.5,26.1
	c0.1-0.1,0.3,0.1,0.3,0.1c0,0.1,0.1,0.2,0.1,0.3c0.1,0.1,0.2,0.2,0.3,0.4c0,0.2,0,0.7-0.1,0.7c0,0-0.2-0.3-0.3-0.2
	c-0.2,0-0.4,0.3-0.4,0.4c0,0-0.1,0-0.1,0c0,0.1-0.2-0.1-0.2-0.5c0-0.4,0.1-0.7,0.2-0.8C40.5,26.3,40.5,26.1,40.5,26.1L40.5,26.1z
	 M41.9,25.1l0.2-0.2l0.1,0.1l0.1,0.2c0,0,0.3,0.5,0.3,0.6c0,0.1-0.1,0.5-0.1,0.6c0,0.1-0.1,0.4-0.1,0.4s-0.2-0.5-0.4-0.5
	c-0.2,0-0.5,0.4-0.5,0.4s-0.1-0.1-0.1-0.3c0-0.2,0.1-0.6,0.3-0.8C41.7,25.3,41.9,25.1,41.9,25.1L41.9,25.1z M43.4,24.8l0-0.1
	c0,0,0-0.1,0-0.1c0,0-0.1,0.1-0.1,0.1l-0.2,0.8c0,0-0.1,0.3,0,0.5c0.1,0.1,0.2,0.3,0.2,0.5c0,0.2,0,0.6,0.1,0.7
	c0,0.1,0.1,0.3,0.2,0.3s0.4-0.1,0.4-0.3c0-0.3,0-0.7-0.1-1.1c-0.1-0.4-0.4-0.6-0.4-0.7C43.4,25.3,43.4,24.9,43.4,24.8L43.4,24.8z
	 M44.4,25.6l0.2-0.2l0.4,0.5c0,0-0.1,0.5-0.2,0.7c-0.1,0.2-0.2,0.3-0.3,0.3c-0.1,0-0.3-0.2-0.2-0.7C44.2,25.8,44.3,25.7,44.4,25.6
	L44.4,25.6z M44.3,25.4l0.1-0.1l-1-1.2l0,0.1c0,0,0.1,0.1,0.2,0.3c0,0.1,0,0.7,0.2,0.9c0.2,0.2,0.3,0.2,0.4,0.2
	C44.2,25.6,44.3,25.4,44.3,25.4L44.3,25.4z M41.3,24.6l0-0.3l-0.1,0c0,0-0.1,0.2-0.2,0.3c-0.1,0.1-0.2,0.2-0.3,0.4
	c-0.1,0.2,0,0.8,0,0.8s0.2,0,0.3,0.1c0.1,0.1,0.2,0.3,0.2,0.3s0.1-0.4,0.2-0.7c0.1-0.2,0.4-0.4,0.4-0.4s-0.1-0.2-0.1-0.2
	C41.4,24.8,41.3,24.7,41.3,24.6L41.3,24.6z M42.3,24l0.2-0.5c0,0,0,0.3,0,0.3c0.1,0.1,0.2,0.3,0.2,0.5c0,0.3-0.2,0.9-0.2,0.9
	c0,0-0.2-0.6-0.4-0.6c-0.2,0-0.4,0.2-0.4,0.2l-0.2-0.3c0,0,0.1-0.2,0.3-0.3C42,24.3,42.3,24.1,42.3,24L42.3,24z M41.6,22.7l0.3-0.2
	l0.5,0.6c0,0-0.1,0.5-0.3,0.7c-0.2,0.2-0.5,0.4-0.5,0.4s-0.3-0.2-0.2-0.6c0-0.3,0.1-0.4,0.1-0.4C41.5,23.1,41.5,22.9,41.6,22.7
	L41.6,22.7z M41.3,22.4l-0.1-0.2c0,0-0.2,0.5-0.3,0.9c-0.1,0.4,0,0.4-0.1,0.7c0,0.3-0.1,0.4,0,0.5c0,0.1,0.1,0.2,0.1,0.2
	s0.1-0.2,0.1-0.3c0-0.1,0.1-0.1,0.1-0.1l0.2,0.3c0,0,0-0.2,0-0.2c0,0-0.1-0.2-0.1-0.3c0-0.1,0-0.3,0-0.4c0-0.1,0.2-0.4,0.1-0.5
	C41.4,22.8,41.3,22.4,41.3,22.4L41.3,22.4z M45.7,22.1L45.7,22.1L45.6,22l-0.1,0L45.5,22c0,0,0,0.5,0,0.7c-0.1,0.2-0.2,0.4-0.2,0.4
	s0,0.1,0,0.1c0,0,0.2,0.3,0.2,0.3l0.1,0c0,0,0-0.7,0-0.8C45.7,22.6,45.7,22.1,45.7,22.1L45.7,22.1z M45.1,17.2L45,17
	c0,0-0.1,0-0.1,0.1c0,0.1,0.1,0.9,0.2,1.4c0.1,0.5,0.2,1.7,0.2,1.8c0,0.2,0.1,0.7,0,1.1c-0.1,0.3-0.4,0.6-0.4,0.6
	c0,0-0.3,0.2-0.3,0.3c0,0,0,0.1,0,0.1c0,0,0.4,0.5,0.4,0.5s0.2-0.4,0.2-0.6c0-0.2,0-0.4,0.1-0.5c0.1-0.1,0.2-0.3,0.3-0.4
	c0.1-0.1-0.1-1.7-0.2-2.1c0-0.4-0.2-1.1-0.2-1.3C45.3,17.8,45.1,17.3,45.1,17.2L45.1,17.2z M43.1,17.5L43.1,17.5
	c-0.1-0.1-0.2-0.1-0.2,0c0,0.1,0.2,1.3,0.3,1.7c0,0.4,0.2,1.8,0.2,1.8c0,0,0.9,1.1,0.9,1.1c0,0,0-0.1,0-0.2c0-0.1-0.1-0.4-0.2-0.6
	c-0.1-0.1-0.4-0.5-0.4-0.6c0-0.1-0.2-1.4-0.2-1.5c0-0.2-0.3-1.5-0.3-1.5C43.2,17.6,43.1,17.5,43.1,17.5L43.1,17.5z M44.4,16.8l0-0.1
	l-0.1,0l-0.1,0l0,0.1c0,0,0.3,1.2,0.3,1.7c0.1,0.5,0.3,1.8,0.3,2c0,0.1-0.1,0.3-0.1,0.4c-0.1,0.1-0.3,0.4-0.3,0.4l0.1,0.5
	c0,0,0.1,0.2,0.1,0.2c0,0,0.5-0.4,0.6-0.8c0.1-0.3,0-0.5,0-0.7c0-0.1-0.2-1.6-0.2-1.7c0-0.2-0.2-1.1-0.2-1.3
	C44.6,17.4,44.5,16.9,44.4,16.8L44.4,16.8z M44,17L44,17l-0.1-0.1l-0.1,0.1c0,0,0,0.1,0,0.1c0,0,0.2,1,0.3,1.5
	c0.1,0.5,0.2,1.5,0.2,1.5l-0.1,0.1l-0.1,0c0,0-0.2-1.4-0.2-1.6c0-0.2-0.1-0.8-0.2-0.9c0-0.1-0.1-0.4-0.1-0.4c0,0-0.1-0.1-0.1-0.1
	c0,0-0.1,0.1-0.1,0.1c0,0,0,0.1,0,0.1c0,0,0.2,0.8,0.2,1.1c0,0.3,0.2,1.4,0.2,1.6c0,0.2,0.1,0.5,0.1,0.6c0.1,0.1,0.2,0.3,0.2,0.3
	c0,0,0.3-0.2,0.4-0.3c0-0.1,0.1-0.3,0.1-0.3c0-0.1-0.1-0.1-0.1-0.2c0-0.1-0.1-1.1-0.2-1.3c0-0.1-0.1-0.7-0.1-0.8
	c0-0.1-0.1-0.5-0.1-0.7C44.1,17.2,44,17,44,17L44,17z M42.7,20l-0.1-0.1c0,0-0.2,0.2-0.1,0.2c0,0,0.4,0.4,0.4,0.4s0-0.2,0-0.3
	C42.8,20.2,42.7,20,42.7,20L42.7,20z M42.1,18.4l0.1-0.3l0.1,0.1c0,0,0.1,0.2,0.2,0.3c0.1,0.1,0.2,0.3,0.2,0.3c0,0.1,0,0.8,0,0.8
	s-0.1-0.1-0.2-0.1c0,0-0.3,0.3-0.3,0.3l-0.6-0.5c0,0,0.1-0.5,0.1-0.6c0,0,0,0,0.1-0.1C42,18.6,42.1,18.5,42.1,18.4L42.1,18.4z
	 M41.2,17.8l-0.4-0.4c0,0-0.3,0.6-0.1,0.9c0.1,0.3,0.8,0.9,0.8,0.9c0,0,0.1-0.4,0.1-0.4s-0.2-0.2-0.3-0.3
	C41.3,18.4,41.3,17.9,41.2,17.8L41.2,17.8z M42,16.8l0-0.2l-0.1,0c0,0,0,0.1-0.1,0.2c0,0.1-0.3,0.3-0.3,0.5c0,0.2-0.1,0.6,0,0.7
	c0.1,0.1,0.2,0.5,0.2,0.5s0.1-0.1,0.2-0.2c0.1,0,0.1-0.1,0.1-0.1c0,0,0.1-0.4,0.2-0.4c0.1,0,0.3,0.3,0.3,0.3s0-0.6-0.1-0.9
	C42.2,17.1,42,16.8,42,16.8L42,16.8z M40.2,16.9l0.1-0.8c0,0,0.3,0.3,0.5,0.4c0.2,0.1,0.2,0.2,0.3,0.3c0.1,0.1,0.1,0.4,0.1,0.4
	s-0.3-0.3-0.4-0.2c-0.1,0-0.1,0.2-0.1,0.2c0,0-0.1,0.2-0.1,0.2c0,0-0.1,0.4-0.1,0.4s-0.1-0.3-0.1-0.5C40.3,17.4,40.2,17.1,40.2,16.9
	L40.2,16.9z M40,14.8l0-0.4c0,0,0.2,0.2,0.3,0.2c0.1,0,0.2,0,0.3,0c0.2,0.1,0.5,0.4,0.7,0.7c0.1,0.3,0.2,0.8,0.2,0.9
	c0,0.1,0.3,0.4,0.3,0.4l-0.1,0.2l0-0.1c0,0-0.2-0.2-0.3-0.3c0-0.1-0.1-0.2-0.2-0.2c-0.1,0-0.3-0.1-0.5-0.1c-0.2,0-0.5-0.5-0.6-0.7
	C40,15.2,40,14.9,40,14.8L40,14.8z M40.7,14.4L40.7,14.4c0-0.1,0.1,0.1,0.2,0.1c0.1,0,0.4-0.1,0.7,0.6c0.3,0.7,0.1,1.3,0.1,1.3
	s-0.2-0.3-0.2-0.7c0-0.4-0.2-0.4-0.3-0.6c-0.1-0.2-0.2-0.3-0.3-0.4C40.8,14.5,40.7,14.4,40.7,14.4L40.7,14.4z M41.8,14.3l-0.1-0.2
	l-0.1,0c0,0,0.6,1.5,0.7,1.6c0.1,0,0.3,0.2,0.4,0.3c0.1,0.1,0.4,0.7,0.6,0.7c0.2-0.1,0.4-0.6,0.2-1c-0.2-0.4-0.8-0.5-1.1-0.7
	C42.1,14.7,41.9,14.4,41.8,14.3L41.8,14.3z M44,14.2l0-0.1l-0.1,0c0,0,0.3,0.7,0.2,1c0,0.2-0.3,0.6-0.3,0.7c0,0.1,0,0.7,0,0.7
	l0.9-0.1c0,0-0.2-0.9-0.3-1.2C44.3,14.8,44,14.2,44,14.2L44,14.2z M38.9,13.7l-0.1-0.2c0,0,0.4,0.1,0.5,0.1c0.1,0,0.3,0,0.4,0.1
	c0.1,0.1,0.5,0.5,0.5,0.6c0,0.1-0.3-0.1-0.4,0c0,0.2,0,0.5,0,0.6c0,0.1-0.1,0.3-0.1,0.3c0,0-0.1-0.2-0.3-0.3
	c-0.2-0.1-0.4-0.5-0.4-0.7C39,14,38.9,13.7,38.9,13.7L38.9,13.7z M43.3,12.7L43.3,12.7c-0.1,0-0.1,0-0.1,0c0,0,0.3,0.6,0.2,0.8
	c-0.1,0.2-0.3,0.8-0.3,1.1c0,0.3,0.4,0.8,0.5,0.8c0.1,0,0.3-0.2,0.3-0.5c0-0.2-0.2-0.6-0.3-0.7c0-0.2,0.1-0.5,0.1-0.6
	C43.8,13.7,43.3,12.7,43.3,12.7L43.3,12.7z M41.4,13.8l-0.6-1.2c0.1,0,0.4,0.3,0.5,0.4c0.1,0.1,0.6,0.2,0.9,0.5
	c0.4,0.3,0.6,0.6,0.7,0.8c0,0.2-0.1,0.4-0.2,0.4c-0.1,0-0.5-0.3-0.8-0.6C41.7,13.8,41.5,13.8,41.4,13.8L41.4,13.8z M39.9,13.6
	L39.8,13c0,0,0.4,0.2,0.6,0.3c0.2,0.1,0.3,0.1,0.4,0.2c0.1,0.1,0.3,0.4,0.3,0.6c0,0.1,0.1,0.3,0.1,0.3c-0.1,0-0.2-0.1-0.3-0.2
	c-0.1-0.1-0.2-0.2-0.2-0.2c-0.1,0-0.1,0.2-0.2,0.3c-0.1,0-0.1-0.2-0.2-0.3C40.3,13.9,40,13.6,39.9,13.6L39.9,13.6z M42.3,11.1l0-0.2
	c0,0,0.3,0.4,0.4,0.7c0.1,0.3,0.2,0.3,0.2,0.4c0,0-0.2,0.5,0,0.9c0.2,0.4,0.2,0.8,0.1,0.9c0,0.1-0.4,0.1-0.6-0.3
	c-0.2-0.4-0.2-0.9-0.2-1c0-0.1,0.2-0.6,0.2-0.7C42.4,11.5,42.3,11.2,42.3,11.1L42.3,11.1z M37.8,12l0.1-0.2c0.1,0,0.3,0.2,0.4,0.2
	c0.1,0,0.5,0,0.7,0.1c0.2,0.2,0.3,0.3,0.4,0.6c0.1,0.3,0,0.5,0,0.6c0,0.1-0.6,0-0.7,0c0,0-0.5-0.5-0.6-0.8C38,12.2,37.8,12,37.8,12
	L37.8,12z M39.1,12L39,11.6c0,0,0.3,0.2,0.5,0.2c0.1,0,0.3,0,0.4,0.1c0.1,0,0.5,0.5,0.6,0.7c0.1,0.2,0,0.4,0,0.4c0,0-0.3,0-0.4-0.1
	c-0.1-0.1-0.2-0.1-0.3-0.1c0,0-0.1,0.2-0.1,0.3c0,0.1,0,0.3,0,0.3c0,0-0.1,0-0.1,0s0-0.2,0-0.3c0-0.1,0.1-0.3,0-0.4
	C39.5,12.5,39.1,12.1,39.1,12L39.1,12z M40.1,11.1L39.9,11c-0.1,0,0,0.1,0,0.1c0,0,0.6,1,0.6,1c0,0,0.3,0.1,0.5,0.3
	c0.2,0.2,0.3,0.4,0.4,0.4c0.1,0,0.5,0.2,0.6,0c0.1-0.2,0.1-0.5-0.2-0.8c-0.3-0.3-0.5-0.4-0.8-0.5c-0.3-0.1-0.5-0.1-0.6-0.2
	C40.3,11.4,40.1,11.2,40.1,11.1L40.1,11.1z M41.4,11l0-0.5c0,0,0.2,0.3,0.2,0.3c0.1,0,0.3,0,0.3,0.1c0,0,0.2,0.3,0.2,0.5
	c0,0.2,0,0.4,0,0.5c0,0.1-0.2,0.1-0.3,0.1c-0.1-0.1-0.2-0.2-0.3-0.4C41.5,11.4,41.4,11.2,41.4,11L41.4,11z M41.9,9L41.9,9
	c0.1,0,0.3,0.2,0.3,0.2c0,0,0.1,0.2,0.1,0.2c0,0-0.4,0.4-0.4,0.5c0,0.1-0.1,0.5-0.1,0.5c0,0,0.3-0.2,0.4-0.3c0-0.1,0.4-0.2,0.4-0.2
	c0,0,0.2,0.3,0.2,0.3c0,0,0.2,0.2,0.2,0.2c0,0-0.1,0.2-0.2,0.2c-0.1,0-0.5,0-0.7,0c-0.2,0-0.3,0-0.3,0c-0.1,0-0.2-0.2-0.2-0.3
	c0-0.1,0.1-0.5,0.1-0.7c0-0.1,0.1-0.5,0.1-0.5C41.8,9.1,41.9,9,41.9,9L41.9,9z M37.1,11.2l-0.6-0.8c0,0,0.2,0.2,0.3,0.2
	c0,0,0.5,0.4,0.6,0.5c0.1,0.1,0.3,0.3,0.3,0.4c0,0.1,0,0.2-0.1,0.2C37.5,11.8,37.2,11.4,37.1,11.2L37.1,11.2z M38.3,10.5l0-0.4
	c0,0,0.1,0.2,0.1,0.2c0,0,0.4,0.1,0.5,0.2c0.1,0.1,0.3,0.3,0.3,0.4c0,0,0.2,0.2,0.3,0.4c0.1,0.2,0.1,0.4,0.1,0.4s-0.5-0.3-0.6-0.2
	c-0.2,0.1-0.1,0.2-0.1,0.2s-0.5-0.4-0.5-0.6C38.2,10.8,38.3,10.7,38.3,10.5L38.3,10.5z M39.2,10L39,9.9C39,9.9,39,10,39,10
	s0.5,0.8,0.6,0.8c0.1,0,0.3-0.1,0.5,0c0.1,0.1,0.3,0.5,0.5,0.5c0.1,0.1,0.6,0.1,0.6,0.1s0.1-0.2-0.1-0.5c-0.3-0.2-0.4-0.3-0.8-0.4
	c-0.3-0.1-0.5-0.1-0.5-0.1C39.6,10.4,39.2,10,39.2,10L39.2,10z M41.3,9.3l-0.2-0.2c0,0-0.1,0-0.1,0L41,9.2L41,9.3
	c0,0,0.2,0.2,0.2,0.3c0,0,0.1,0.3,0.1,0.3l0.1-0.1c0,0,0-0.1,0-0.2C41.5,9.5,41.4,9.4,41.3,9.3L41.3,9.3z M36.8,9.6l0-0.3
	c0,0,0.2,0.3,0.3,0.3c0.1,0,0.5-0.1,0.6,0c0.1,0.1,0.4,0.5,0.4,0.6c0,0.1-0.1,1-0.1,1.2c0,0.1,0,0.3,0.1,0.3c0.1,0,0.1,0.2,0.1,0.2
	S38,11.7,38,11.7c0,0,0-0.1-0.1-0.3c-0.1-0.2-0.3-0.4-0.5-0.5c-0.2-0.1-0.3-0.3-0.4-0.4c0-0.1-0.1-0.3-0.2-0.4
	C36.8,10.1,36.8,9.7,36.8,9.6L36.8,9.6z M36.2,7.1l0.2-0.1c0,0,1,0.9,1.4,1.2c0.3,0.3,0.9,1,1,1c0.1,0.1,0.5,0.1,0.6,0.1
	c0.1,0,0.5,0.2,0.6,0.4c0.1,0.1,0.3,0.4,0.2,0.4c0,0.1-0.4,0.1-0.5,0c-0.1-0.1-0.3-0.3-0.5-0.4c-0.2-0.1-0.5-0.1-0.5-0.1
	s-1-1-1.2-1.2c-0.2-0.2-1.4-1.3-1.4-1.3S36.2,7.2,36.2,7.1L36.2,7.1z M37.7,5.7l-0.1-0.1c0,0-0.1,0-0.1,0.1c0,0,0,0.1,0.1,0.2
	c0,0.1,1.3,1.3,1.5,1.4c0.2,0.1,1.1,1.1,1.3,1.4c0.1,0.3,0.2,0.5,0.2,0.6c0,0.1,0,0.6,0,0.8c0,0.2,0,0.5,0.3,0.6
	c0.2,0.1,0.4-0.1,0.4-0.2c0,0,0-0.5-0.1-0.7c-0.1-0.2-0.2-0.4-0.3-0.5c0-0.1-0.1-0.6-0.1-0.6s-1.1-1.2-1.4-1.6
	C39,6.8,38.5,6.3,38.2,6C38,5.8,37.7,5.7,37.7,5.7L37.7,5.7z M36.7,6.1l-0.1,0c0,0,0,0.1,0,0.1c0,0,1.1,0.9,1.2,1.1
	c0.1,0.1,0.8,0.9,0.9,0.9c0,0,0.1,0.1,0,0.1c0,0-0.1,0-0.1,0c0,0-0.7-0.6-0.9-0.8c-0.2-0.2-0.5-0.5-0.6-0.5
	c-0.1-0.1-0.3-0.3-0.4-0.4c-0.1-0.1-0.1-0.1-0.1,0c-0.1,0-0.1,0.1-0.1,0.1c0,0,0.6,0.5,0.6,0.6c0.1,0.1,0.7,0.7,0.8,0.7
	c0.1,0.1,0.6,0.6,0.6,0.7c0,0.1,0.4,0.4,0.6,0.4c0.2,0,0.3-0.1,0.3-0.1c0-0.1,0.1-0.3,0-0.4c-0.1-0.1-0.8-0.7-0.9-0.9
	c-0.1-0.1-0.5-0.4-0.6-0.5c-0.1-0.2-0.5-0.4-0.6-0.5C37.2,6.5,36.8,6.2,36.7,6.1L36.7,6.1z M35.4,4L35.4,4c0.1-0.1,0.9,0.4,1.2,0.6
	c0.3,0.3,0.8,0.7,0.8,0.7L37,5.7c0,0,1.1,1,1.6,1.4c0.5,0.5,1.1,1.2,1.2,1.2c0,0,0.3,0.2,0.5,0.4c0.1,0.2,0,0.9,0,0.9s-0.1,0-0.2,0
	c0,0-0.4-0.3-0.4-0.3s0-0.6,0-0.8c0-0.1-0.9-1.1-1.1-1.2c-0.2-0.2-1.3-1.2-1.4-1.3c-0.1-0.1-0.5-0.2-0.7-0.8c-0.2-0.6,0-0.5-0.1-0.6
	c-0.1-0.1-0.2-0.3-0.5-0.5C35.5,4.1,35.4,4,35.4,4L35.4,4z M35.6,9.5l-0.1-0.7c0,0,0.3,0.1,0.4,0.2c0.1,0.1,0.6,0.7,0.6,0.7
	s0,0.4,0,0.5c0,0.1,0,0.1,0,0.1s-0.2,0-0.3,0c0,0-0.6-0.4-0.7-0.5C35.6,9.7,35.6,9.6,35.6,9.5L35.6,9.5z M36,8.2l0-0.4
	c0,0,0.3,0.2,0.4,0.2c0.2,0.1,0.5,0.2,0.7,0.5c0.1,0.3,0.2,0.8,0.2,0.8s-0.1,0-0.1,0c0,0-0.3-0.3-0.5-0.3c-0.2,0.1-0.1,0.3-0.1,0.3
	S36,8.9,36,8.7C35.9,8.6,36,8.4,36,8.2L36,8.2z M34.4,8l-0.1-0.2c0,0,0.2,0,0.2,0c0,0,0.3,0.4,0.5,0.5c0.1,0.1,0.6,0.3,0.6,0.3
	l0,0.1c0,0-0.1-0.1-0.1-0.1c0,0-0.1,0-0.2,0.1c0,0.1,0.1,0.3,0.1,0.4c0,0.1,0.1,0.3,0,0.3c0,0-0.6-0.3-0.7-0.5
	c-0.1-0.2-0.3-0.3-0.3-0.5C34.4,8.3,34.4,8.1,34.4,8L34.4,8z M34.5,7.4l0.1-0.7c0,0,0.4,0.1,0.6,0.2c0.2,0.1,0.4,0.2,0.5,0.4
	c0.1,0.2,0.1,0.2,0.1,0.2s-0.2,0-0.2,0c0,0,0,0.8,0,0.8s-0.3,0-0.4-0.1c-0.1-0.1-0.5-0.4-0.6-0.5C34.6,7.6,34.5,7.5,34.5,7.4
	L34.5,7.4z M35.9,5.5l0.4,0.2c0,0,0.3,0.4,0.2,0.6c-0.2,0.2-0.5,0-0.6,0c-0.1,0-0.2-0.1-0.3-0.1c-0.2,0-0.4,0-0.4,0
	s-0.6-0.3-0.8-0.4c-0.2-0.1-0.7-0.4-0.7-0.4c0,0,0-0.1,0.1-0.1c0.1,0,0.5,0.2,0.7,0.2c0.2,0,0.9-0.1,0.9-0.1
	C35.4,5.4,35.7,5.4,35.9,5.5L35.9,5.5z M33.4,8c-0.3-0.2-0.5-0.4-0.6-0.7c0,0,0.6-0.1,0.8-0.1c0.2,0,0.7,0.2,0.7,0.3
	c0,0.1,0,0.2,0,0.2c0,0-0.1,0-0.1,0c0,0,0,0.3,0,0.4c0,0.2,0,0.4,0,0.4S33.7,8.2,33.4,8L33.4,8z M33.2,6.1C32.7,6,32.2,6,31.8,6.1
	c0,0,0.1,0.2,0.2,0.4c0.1,0.2,0.2,0.5,0.5,0.6c0.3,0.1,0.8,0,1,0c0.2,0,0.4,0,0.4,0S33.6,6.3,33.2,6.1L33.2,6.1z M31.5,5.9l0.3-0.1
	c0,0-0.3-0.2-0.6-0.2c-0.3,0.1-0.4,0.2-0.5,0.3C30.5,6,30.2,6,30.2,6.1c0,0-0.1,0.1-0.1,0.1c0,0,0.5,0.4,0.8,0.5
	c0.2,0.1,0.9,0.1,0.9,0.1s0-0.1,0-0.2C31.8,6.5,31.4,6.2,31.5,5.9L31.5,5.9z M32.9,5.8l-0.2-0.5c0,0,0.7,0.2,1.2,0.5
	c0.5,0.3,0.8,0.7,0.8,0.7l-0.3,0.1l0,0.5l-0.4-0.2c0,0-0.1-0.4-0.4-0.6C33.3,6,32.9,5.8,32.9,5.8L32.9,5.8z M32.2,4.5l0.4,0.1
	c0.1,0,0.8-0.2,1-0.2c0.2,0,0.8,0,1,0.1C34.8,4.7,35,4.9,34.9,5c-0.1,0.1-0.3,0.2-0.5,0.2c-0.2,0-0.4-0.1-0.6-0.1
	c-0.2,0-0.4,0-0.5,0c-0.1,0-0.6-0.2-0.7-0.3c-0.1-0.1-0.5-0.3-0.5-0.3s0,0,0-0.1C32.1,4.5,32.2,4.5,32.2,4.5L32.2,4.5z M33.9,3.3
	l0-0.2c0,0,0.6,0.3,0.7,0.4c0.2,0.1,0.4,0.2,0.4,0.3c0,0,0.1,0.4,0.2,0.5c0.1,0.1,0.5,0.2,0.7,0.4c0.2,0.2,0.2,0.4,0.1,0.5
	c0,0-0.3,0.1-0.4,0.1c-0.1,0-0.4-0.1-0.6-0.2c-0.1-0.2-0.3-0.4-0.4-0.6c0-0.2,0-0.3-0.1-0.4c-0.1-0.1-0.3-0.3-0.4-0.4
	C34.2,3.5,34,3.4,33.9,3.3L33.9,3.3z M32.4,5.4l0.1-0.3c0,0-0.6-0.3-0.6-0.3c0,0-0.1-0.1-0.3-0.1c-0.2,0-0.4,0.1-0.5,0.1
	c-0.1,0-0.3,0.1-0.3,0.1c0,0,0.1,0.2,0.1,0.3C31,5.4,31,5.5,31,5.5s0.4-0.1,0.7,0.1c0.2,0.1,0.5,0.3,0.5,0.3l0.5,0c0,0,0-0.1,0-0.2
	C32.5,5.6,32.4,5.5,32.4,5.4L32.4,5.4z M32.6,2.5L32,2.2l0,0.1L32,2.4c0,0,0.4,0,0.6,0.3C32.9,3,33.1,3.8,33.4,4
	c0.4,0.2,0.9,0.4,1.1,0.2c0.1-0.2,0-0.4-0.2-0.5c-0.1-0.1-0.5-0.3-0.6-0.4c-0.1-0.1-0.2-0.4-0.3-0.5C33.3,2.8,32.9,2.6,32.6,2.5
	L32.6,2.5z M29.3,5.1L29.3,5.1c0.1,0,0.2,0.2,0.4,0.4c0.2,0.1,0.7,0.3,0.7,0.3s-0.3,0-0.4,0.1c-0.1,0.1-0.1,0.3-0.1,0.3
	s-0.3,0-0.5,0c-0.1,0-0.2,0-0.4-0.1C29,5.9,29,5.8,28.8,5.7c-0.1-0.1-0.3-0.3-0.3-0.3c0,0,0.1-0.1,0.3-0.1C29,5.3,29.3,5.1,29.3,5.1
	L29.3,5.1z M30.9,4.7l0.2-0.2c0,0,0,0-0.2-0.1c-0.2-0.1-0.3-0.2-0.6-0.2c-0.3,0-0.5,0.1-0.6,0.1c-0.1,0-0.4,0.1-0.4,0.2
	c0,0.1,0.1,0.3,0.3,0.4c0.1,0.1,0.1,0.3,0.2,0.3c0,0,0.7,0.3,0.8,0.3c0.1,0,0.3,0,0.3,0c0,0,0-0.1-0.1-0.2c-0.1-0.1-0.2-0.3-0.1-0.4
	C30.6,4.8,30.8,4.7,30.9,4.7L30.9,4.7z M30.5,3.8l-0.2,0l1.4,0.6c0,0,0.2-0.2,0.5-0.1c0.3,0.1,0.6,0.1,0.8,0
	c0.1-0.1,0.3-0.2,0.3-0.3c-0.1-0.1-0.3-0.3-0.5-0.4c-0.2-0.1-0.5-0.1-0.8-0.1c-0.3,0.1-0.6,0.2-0.8,0.3C30.9,3.9,30.5,3.8,30.5,3.8
	L30.5,3.8z M26.5,5l0.2-0.2c0.1,0,0.3,0.3,0.7,0.4c0.4,0.1,0.9,0,0.9,0s-0.1,0.2,0,0.2c0,0.1,0.4,0.4,0.4,0.4S28,5.6,27.7,5.6
	c-0.3-0.1-0.6-0.1-0.7-0.1c0,0-0.1-0.1-0.3-0.3C26.7,5.1,26.5,5,26.5,5L26.5,5z M28.1,4L28,3.9c0,0,0.2,0,0.3,0
	c0.1,0,0.1-0.1,0.6-0.1c0.4,0,0.8,0.3,0.8,0.3s-0.5,0.1-0.6,0.3c-0.1,0.2,0.1,0.5,0.1,0.5S28.9,5,28.9,5c0,0-0.2-0.1-0.2-0.2
	c0-0.1-0.1-0.4-0.2-0.5C28.4,4.2,28.2,4.1,28.1,4L28.1,4z M26.8,4.4l-0.2-0.2c0,0,0-0.1,0.1-0.1c0.1,0,0.3-0.2,0.6-0.2
	c0.3,0.1,0.5,0.1,0.7,0.3c0.2,0.2,0.2,0.3,0.3,0.4c0,0.1,0.1,0.1,0.1,0.2c0,0-0.3,0.3-0.6,0.2c-0.3-0.1-0.6-0.2-0.7-0.3
	C27,4.6,26.8,4.4,26.8,4.4L26.8,4.4z M31.2,3.1L30.8,3c-0.4,0-0.7,0.1-0.8,0.2c-0.1,0.1-0.2,0.2-0.4,0.3C29.5,3.5,29,3.5,29,3.5
	l0.9,0.3c0,0,0.1-0.2,0.4-0.2c0.3,0,0.5,0.1,0.8,0c0.3-0.1,0.4-0.2,0.4-0.3C31.4,3.3,31.3,3.2,31.2,3.1L31.2,3.1z M30,1.7l0-0.2
	c0,0,0.6,0.2,0.9,0.2C31,1.9,31.4,2,31.5,2c0.1,0.1,0,0.2,0,0.2c0,0,0.1,0.3,0.6,0.4c0.5,0.2,0.6,0.6,0.6,0.6c0,0-0.1,0.1-0.1,0.1
	c-0.1,0-0.6,0-0.8-0.2c-0.2-0.2-0.4-0.4-0.5-0.5c-0.1-0.1-0.1-0.3-0.2-0.5c-0.2-0.2-0.2-0.3-0.5-0.3C30.3,1.8,30,1.8,30,1.7L30,1.7z
	 M25.4,3.9L25,3.5c0,0,0.2,0,0.2-0.1c0.1,0,0.4-0.2,0.9-0.2c0.5,0,0.9,0.4,0.9,0.4s-0.2,0.1-0.3,0.1c-0.1,0-0.3,0.2-0.3,0.2
	c0,0.1,0.1,0.4,0.1,0.4c0,0-0.2,0-0.3,0c-0.1,0-0.4-0.1-0.5-0.2C25.5,4.1,25.5,4,25.4,3.9L25.4,3.9z M29.3,2.7c0.1,0,0.2,0,0.3,0
	c0.1,0.1,0.2,0.1,0.2,0.2c0,0.2-0.2,0.3-0.4,0.4c-0.1,0-0.6,0-0.7,0c-0.1,0-0.6,0-0.7,0c-0.1,0-0.5-0.1-0.8-0.2
	c-0.4-0.1-0.8-0.1-1-0.1c-0.2,0-0.9-0.1-1,0c-0.1,0-0.2-0.1-0.2-0.1c0,0,0.1-0.1,0.1-0.1c0.1,0,1.4,0.1,2,0.2c0.6,0.1,1,0.2,1.1,0.2
	c0.1,0,0.4-0.1,0.5-0.1C28.8,2.9,29,2.7,29.3,2.7L29.3,2.7z M25.5,1.8l-0.8,0l-0.1,0.1L24.7,2c0,0,1.5,0.1,1.8,0.1
	c0.3,0.1,1.3,0.2,1.4,0.2c0.1,0.1,0.1,0.2,0,0.2c0,0-1.2-0.1-1.5-0.2c-0.3,0-1.3-0.1-1.5-0.1c-0.1,0-0.2,0.1-0.2,0.1l0,0.1l0.1,0.1
	c0,0,1.3,0,1.8,0.1c0.5,0.1,1.1,0.2,1.2,0.2c0.1,0,0.5,0,0.5,0c0.1,0,0.2-0.1,0.1-0.3c0-0.1-0.1-0.2-0.2-0.3
	c-0.1-0.1-0.2-0.2-0.6-0.2c-0.4-0.1-1.1-0.2-1.3-0.2C26.2,1.8,25.8,1.8,25.5,1.8L25.5,1.8z M28.7,2.5l0.7-0.1c0,0,0-0.3-0.3-0.5
	c-0.3-0.2-0.9-0.3-1.3-0.3c-0.3-0.1-1.2-0.2-1.5-0.2c-0.4,0-1.7-0.1-1.7-0.1l-0.1,0.1l0,0.1l0,0.1c0,0,1.3,0.1,1.7,0.1
	c0.4,0,1.2,0.1,1.5,0.2c0.3,0.1,0.6,0.3,0.7,0.4C28.7,2.4,28.7,2.5,28.7,2.5L28.7,2.5z M27.1,0.9l-2.4-0.3l-0.2,0l0,0.2L24.7,1
	l2.4,0.2l1.6,0.3c0,0,0.5,0.2,0.6,0.3c0.1,0.1,0.4,0.5,0.4,0.6c0,0.1,0.4,0.5,0.6,0.5c0.2,0,0.5-0.1,0.5-0.4c0-0.3-0.4-0.4-0.5-0.5
	c-0.1-0.1-0.5-0.2-0.6-0.2c-0.1-0.1-0.3-0.4-0.4-0.4C29.1,1.3,27.6,1,27.1,0.9L27.1,0.9z M36.9,37.9l0-0.9l-0.2,0.1
	c0,0,0,1.5-0.4,2.2c-0.4,0.7-0.8,1.3-1.1,1.7c-0.3,0.3-0.6,0.6-1,0.8c-0.5,0.2-1.3,0.7-1.5,0.7c-0.2,0.1-0.5,0.2-0.5,0.2l0.1,0.1
	c0,0,1.2-0.4,1.4-0.5c0.2-0.2,0.6-0.3,0.6-0.3l0,4.3l1.2-0.1l0,0.4l-2,0.1l0.1-1.3l0.6-1.5l-0.1-0.1l-0.8,1.7l-0.6,0.8l-5-2.2l0,0.1
	l0.9,0.4l0.1,2.1l-0.2,0.1l0,0.3l0.9-0.1l0-0.3l1.3-0.2l0.1-1l0.3,0.3l1.6,0.7l0.4-0.6l-0.1,1l2.6-0.2l0-0.7l1.5-0.1l0-0.9l1.7-0.2
	l-0.1-1.1l1.1-0.1L39.4,38l-1.1,1c0,0,0.5-0.9,0.7-1.5c0.2-0.6,0.3-1.3,0.3-1.3L39,35.6c0,0,0.1,1.1-0.2,1.9
	c-0.3,0.8-0.6,1.3-0.8,1.6c-0.2,0.4-1.1,1-1.1,1c0,0,0.6-1,0.8-1.9c0.2-0.9,0.2-1.8,0.2-1.9c0-0.1,0-0.4,0-0.4l-0.2,0
	c0,0,0,1.7-0.2,2.2c-0.2,0.5-0.1,0.7-0.4,1.2c-0.2,0.4-0.5,1-0.7,1.2c-0.2,0.2-0.8,0.6-0.8,0.6s0.8-1,1-1.6
	C36.7,38.8,36.8,38.4,36.9,37.9L36.9,37.9z M39.7,43.6l-0.5-4.9l-1.9,1.5l0.2,3.6L39.7,43.6L39.7,43.6z M30.3,33.5L30.3,33.5
	L30.3,33.5l0.2,0l0.1,0l0-0.1l0,0l0,0l0,0.2l0,0.1l-0.1,0h-0.1l0,0l-0.1,0l0,0C30.4,33.6,30.3,33.5,30.3,33.5
	C30.3,33.5,30.3,33.5,30.3,33.5L30.3,33.5z M32.9,33.5L32.9,33.5l0.1,0l0.1,0l0-0.1l0.1,0h0.1l0,0.2l-0.1,0.1L32.9,33.5L32.9,33.5
	L32.9,33.5L32.9,33.5z M33.3,33.6l0-0.2l0.1,0l0.1,0.1l0.1-0.1l0,0l0.1,0l0,0.2l-0.1,0l0,0l0,0l-0.1,0l0-0.1L33.3,33.6L33.3,33.6
	L33.3,33.6z M32.4,33.6L32.4,33.6l0.1-0.1l0.1,0l0,0l0.1,0l0-0.1l0-0.1l0.1,0l0.1,0.1l0,0.1l-0.1,0.1l0,0.1L32.4,33.6L32.4,33.6
	L32.4,33.6z M32.2,33.4L32.2,33.4L32.2,33.4l-0.1,0.1h0l0-0.1l-0.1,0c0,0,0,0.1,0,0.1c0,0,0,0,0,0.1c0,0,0,0.1,0,0.1l0.1,0l0.1,0
	l0.1,0l0,0L32.2,33.4L32.2,33.4L32.2,33.4L32.2,33.4z M31.4,33.4L31.4,33.4l0.2,0l0,0l0-0.1h0l0.1,0.1l0,0.1l-0.1,0h-0.1l0,0l-0.1,0
	l0,0l-0.1,0c0,0,0,0,0,0C31.4,33.5,31.3,33.4,31.4,33.4L31.4,33.4L31.4,33.4z M31.2,33.3L31.2,33.3L31.2,33.3l-0.1,0.1l0,0l0,0l0,0
	c0,0-0.1,0-0.1,0c0,0,0,0.1,0,0.1c0,0,0.1,0,0.1,0l0.1,0l0,0c0,0,0,0,0,0c0,0,0.1,0,0.1,0l0-0.1c0,0,0,0,0,0
	C31.2,33.4,31.2,33.3,31.2,33.3C31.2,33.3,31.2,33.3,31.2,33.3L31.2,33.3z M28,31.2l-8.1-0.1l0,0.1l0.1,0l0,0.1l-0.1,0l0,0l0,0l0,0
	l0.1,0l0.1,0l0.1,0l0.1,0.1l0,0.1c0,0,0,0.1,0,0.2c0,0.1,0,0.1-0.1,0.2c0,0-0.1,0.1-0.1,0.1c-0.1,0-0.1,0-0.1,0c-0.1,0-0.1,0-0.1,0
	l0,1.3l0,0.1l0.1,0l0.1-0.1l0,0c0,0,0.1,0,0.1,0c0,0,0.1,0,0.1,0.1c0,0,0,0.1,0,0.1c0,0,0,0.1,0,0.1s0,0,0,0.1c0,0,0,0,0,0.1
	c0,0,0.1-0.1,0.1-0.1c0,0,0,0,0-0.1c0,0,0.1,0,0.1,0s0-0.1,0-0.1c0,0,0-0.5,0-0.5c0,0,0.1-0.4,0.5-0.4c0.4,0,0.4,0.3,0.4,0.3l0,0.7
	l0.2,0l0,0.1c0,0,0,0,0.1,0c0,0,0.1,0.1,0.1,0.1c0,0,0,0.1,0,0.1c0,0,0,0.1,0,0.1c0,0,1.4,0,1.4,0s0.1-0.1,0.1-0.1c0,0,0-0.1,0-0.1
	c0,0,0.1-0.1,0.1-0.1c0,0,0-0.1,0-0.1l0.2,0l0-0.7c0,0,0-0.4,0.5-0.4c0.5,0,0.5,0.4,0.5,0.4l0,0.6l0,0l0.1,0v0.1l0.1,0l0,0l0.1,0.2
	l1.4,0l0-0.1l0-0.1l0.2-0.2h0.2l0-0.7c0,0,0.1-0.3,0.4-0.3c0.3,0,0.4,0.3,0.4,0.3l0,0.7l0.2,0.2l0-0.3l0.2,0l0.1,0.1l0.1,0.1l0.1,0
	l0-1.3L27.8,32l-0.1-0.1l-0.1-0.2l0-0.2l0.1-0.1l0.1,0l0.2,0.1L28,31.2L28,31.2z M25.4,33.4L25.4,33.4l0-0.1l0.1,0h0.1l0,0l0-0.1
	l0.1,0v0.2l-0.1,0l-0.1,0L25.4,33.4L25.4,33.4L25.4,33.4z M22.7,33.4l0-0.2l0.1,0l0,0v0.2l0,0l0,0l0.1,0l0.1,0l0,0.1l-0.1,0
	L22.7,33.4L22.7,33.4L22.7,33.4z M22.2,33.4l0-0.2l0.1,0l0.1,0.1l0.1,0c0,0,0-0.1,0-0.1c0,0,0-0.1,0-0.1l0.1,0l0,0.2l-0.1,0
	L22.2,33.4L22.2,33.4L22.2,33.4z M25,33.2L25,33.2L25,33.2l0.1,0l0,0.2l-0.1,0.1l-0.2,0v-0.1l0.1,0l0.1,0V33.2L25,33.2z M30.2,33.7
	l-1.2,0l0-0.1l0.1-0.1l0,0l0.1,0l0.1,0l0.1,0l0,0h0.1c0,0,0,0,0,0c0,0,0.1,0,0.1,0v-0.1h0.1c0,0,0,0,0,0c0,0,0.1,0,0.1,0v0h0.1v0.1
	l0.1,0l0,0l0,0.1L30.2,33.7C30.2,33.7,30.2,33.7,30.2,33.7C30.2,33.7,30.2,33.7,30.2,33.7L30.2,33.7z M29.9,33.4l-0.6,0l0-0.6
	c0,0,0-0.2,0.3-0.2c0.3,0,0.3,0.2,0.3,0.2L29.9,33.4L29.9,33.4z M27.8,31.6L27.8,31.6l0.1,0.1l0.1,0.1c0,0,0.1,0,0.1,0
	c0,0,0.1,0,0.1,0l0-0.2l0.1,0c0,0,0.1,0,0.1,0c0,0,0,0,0,0v0.2h0.1h0.1l0.1,0l0.1,0l0-0.1l0,0l0,0.1l-0.1,0.1l-0.1,0l-0.1,0l-0.1,0
	l0,1.6l0.1,0l0.1,0l0,0l0,0l0.1,0l0,0l0,0l0,0v0l0,0l0.1,0l0.1,0l0,0l-1.1,0l0-0.1l0,0l0-0.1l0-0.1l0.1,0l0.1,0l0,0l0.1,0l0.1,0l0,0
	l0.1-0.1l0-1.5l-0.1,0l-0.1,0l-0.1,0L27.8,31.6L27.8,31.6L27.8,31.6z M28.2,31.4l0-0.2l0,0l0.2,0.1l0,0l0,0.1H28.2L28.2,31.4z
	 M27.5,33.7l-1.2,0l0-0.1l0-0.1l0.1-0.1l0.3,0v0l0.1,0l0,0.1l0.1,0l0,0h0.1l0,0l0.1,0l0-0.1h0.1l0,0l0.1,0l0.1,0l0,0L27.5,33.7
	L27.5,33.7L27.5,33.7L27.5,33.7z M27.2,33.3l-0.6,0v-0.6c0,0,0-0.2,0.3-0.2c0.2,0,0.3,0.2,0.3,0.2L27.2,33.3L27.2,33.3z M23.4,33.4
	L23.4,33.4l-0.1,0.1l-0.1,0.1l0,0.1l1.4,0l-0.2-0.2l-0.1,0l-0.1,0l0,0.1l-0.1,0v-0.1h-0.1l0,0.1H24l0-0.1h-0.1l0,0.1h-0.1l0-0.1
	l-0.1,0l0,0.1l-0.1,0l0-0.1L23.4,33.4L23.4,33.4z M24.3,33.3l-0.7,0l0-0.7c0,0,0.1-0.3,0.3-0.3c0.3,0,0.3,0.3,0.3,0.3L24.3,33.3
	L24.3,33.3z M20.4,33.4L20.4,33.4l0.1-0.1h0.1v-0.1h0.1l0,0.1h0.1l0,0h0.1v0l0.1,0v0h0.1v0l0.3,0l0.1,0.1l0,0.1l0,0.1l-1.2,0
	L20.4,33.4L20.4,33.4L20.4,33.4z M20.6,32.6l0,0.6l0.6,0l0-0.6c0,0,0-0.2-0.3-0.2C20.7,32.4,20.6,32.6,20.6,32.6L20.6,32.6z
	 M14.2,33.3l0-0.3l0.1,0l0.1,0.1l0.1,0l0,0l0,0h0l0,0l0,0.1c0,0-0.1,0-0.1,0c0,0-0.1,0.1-0.1,0.1s0,0,0,0c0,0,0,0,0,0L14.2,33.3
	L14.2,33.3L14.2,33.3L14.2,33.3z M17.3,33.2L17.3,33.2L17.3,33.2l-0.1,0.1l0,0.1l0,0.1l0.1,0h0.1l0,0l0,0h0.1l0-0.1l0,0l-0.2,0
	L17.3,33.2L17.3,33.2L17.3,33.2L17.3,33.2z M16.7,33.2L16.7,33.2C16.6,33.1,16.6,33.2,16.7,33.2c-0.1,0.1-0.1,0.2-0.1,0.2
	c0,0,0,0,0,0l0,0l0,0l0.1,0l0.1,0l0-0.1v-0.1l-0.1,0L16.7,33.2L16.7,33.2L16.7,33.2z M16.2,33.2L16.2,33.2L16.2,33.2l0.2,0h0.1
	l0.1,0l0,0.1l-0.1,0l-0.1,0l-0.1,0L16.2,33.2L16.2,33.2L16.2,33.2z M15.7,33.2L15.7,33.2l-0.1,0.1l0,0.1l0.1,0h0.1l0.1,0l0,0l0-0.1
	l0,0l0,0l-0.1,0L15.7,33.2L15.7,33.2L15.7,33.2z M15.1,33.3l0-0.1l0,0l0,0l0,0l0,0L15.1,33.3l0.1-0.1l0.1,0l0,0l0,0l0.1,0l0,0l0,0.1
	l-0.1,0L15.1,33.3L15.1,33.3L15.1,33.3L15.1,33.3z M14.6,33.3v-0.2l0.1,0l0,0l0,0.1l0,0l0.1,0l0,0l0,0l0,0l0,0.1l0,0h0L14.6,33.3
	L14.6,33.3L14.6,33.3L14.6,33.3z M18.3,32.4c-0.2,0-0.3,0.1-0.3,0.2v0.6l0.1,0v0h0.1l0,0l0.1,0v0l0.1,0v0l0.1,0v0.1h0.1l0-0.7
	C18.5,32.6,18.5,32.4,18.3,32.4L18.3,32.4z M19.7,31.4h-0.2l0,0.2l-0.2,0l-0.1,0l-0.1-0.1l-0.1,0c0,0,0.1,0.2,0.1,0.2
	c0.1,0,0.2,0,0.2,0c0,0,0.1,0,0.1,0l0,0v1.6c0,0-0.1,0-0.1,0c0,0,0,0-0.1,0c0,0,0-0.1,0-0.1l0,0l-0.1,0l0,0.2c0,0-0.2,0-0.3,0
	c0,0-0.1-0.1-0.1-0.1l-0.1-0.1l-0.2,0l0,0h-0.1l0,0l-0.1,0l0-0.1h-0.1l0,0.1l-0.1,0l0-0.1H18l-0.1,0.1l-0.1,0l0,0h0l-0.1,0.3l2.4,0
	l0-0.3l-0.1,0l0,0.1l-0.2,0l-0.1-0.1l0-1.6l0,0l0.1,0c0,0,0.2,0,0.2,0c0,0,0.1-0.2,0.1-0.2l0-0.1l-0.1,0.1l-0.1,0l-0.1,0l0-0.1
	L19.7,31.4L19.7,31.4z M19.5,31.3l0-0.1c0,0,0.2,0,0.2,0l0,0.2H19.5L19.5,31.3z M11.1,30.8l0-0.3l25.6,0.3l0.1,0.3l-8.3-0.1v-0.2
	h-0.3l0,0.2L19.7,31l0-0.2l-0.3,0l0,0.2L11.1,30.8L11.1,30.8z M17.6,30.3l0-1l0.3,0l0,0l-0.1,0.1V30l0.1,0l0.1,0v-0.4l0.2-0.1
	l0.1-0.1l0.1,0l0.2,0l0.1,0.1l0.1,0.1l0,0.1l0,0.5l0,0.1l-0.1,0l0,0l-0.1,0l0,0.1l0,0.2l0.3,0l0.1,0l0,0l0-0.8l-0.2-0.1v-0.1l0.4,0
	l0,0c0,0-0.1,0-0.2,0.1c0,0,0,0.2,0,0.2v0.7l0,0.1h0.2l0-0.1l-0.1,0l0-0.3l0-0.3l0.1-0.1l0.1-0.1l0.1,0l0.3,0l0.3,0.2l0,0.1l0,0.3
	l0,0.1l0,0.1L20,30.2l-0.1,0l-0.1,0l0,0c0,0,0,0,0.1,0c0,0,0,0.1,0,0.1l0.3,0v-0.9L20,29.4l-0.1,0l0,0h0.5l0,0.1l-0.1,0l-0.1,0v0.9
	l0.2,0l0-0.1c0,0-0.1,0-0.1,0c0,0,0-0.6,0-0.6l0.1-0.1l0.2-0.1l0.1,0l0.3,0l0.1,0.1l0.2,0.1l0,0.1l0,0.5l0,0.1l-0.1,0l-0.1,0l0,0.1
	l0.2,0l0,0l0-0.8l-0.1,0l0,0v0l0.5,0l0,0l0,0l-0.2,0l0,0l0,0.8l0,0.1l0.3,0l0-0.1l-0.1,0l-0.1-0.1l0-0.5l0.1-0.1l0.2-0.1l0.1,0
	l0.3,0l0.1,0l0.1,0.1l0.1,0l0,0.1l0,0.4l0,0.1l0,0l0-0.1l-0.1,0l0,0.1l0,0.1l0,0h0.2l0-0.9c0,0,0,0-0.1,0c0,0-0.1,0-0.1,0l0,0l0.6,0
	l0,0.1c0,0-0.2,0-0.2,0.1c0,0,0,0.1,0,0.1l0,0.8l0.2,0l0.1,0l0.1,0l0,0l-6.1-0.1v-0.2h0.1l0,0.1l0,0L17.6,30.3L17.6,30.3L17.6,30.3z
	 M21.9,30.3L21.9,30.3L21.9,30.3l0.1,0c0,0,0,0,0,0c0,0,0,0,0,0c0,0,0,0,0,0l0,0c0,0,0,0,0,0c0,0,0,0.1,0,0.1c0,0,0,0,0,0l0,0
	L21.9,30.3C21.9,30.4,21.9,30.3,21.9,30.3C21.9,30.3,21.9,30.3,21.9,30.3L21.9,30.3z M19.5,30.2L19.5,30.2L19.5,30.2l0.1,0l0,0
	l0.1,0l0,0l0,0l-0.2,0l0,0C19.5,30.3,19.5,30.3,19.5,30.2C19.5,30.3,19.5,30.3,19.5,30.2L19.5,30.2L19.5,30.2z M18.2,30.3L18.2,30.3
	L18.2,30.3l0.1-0.1l0.1,0l0.1,0c0,0,0,0,0,0c0,0,0,0.1,0,0.1c0,0,0,0,0,0L18.2,30.3C18.3,30.4,18.2,30.3,18.2,30.3
	C18.2,30.3,18.2,30.3,18.2,30.3L18.2,30.3z M17.9,30.2L17.9,30.2L17.9,30.2C17.8,30.2,17.8,30.3,17.9,30.2c-0.1,0.1-0.1,0.2-0.1,0.2
	c0,0,0,0,0,0l0.2,0c0,0,0,0,0,0c0,0,0-0.1,0-0.1l-0.1,0C18,30.3,18,30.3,17.9,30.2C18,30.3,17.9,30.2,17.9,30.2L17.9,30.2z
	 M24.8,29.5L24.8,29.5l0.6,0l0,0l-0.1,0l-0.1,0l0,0.1l0,0.8l0,0l0.1,0l0.1,0l0.1,0l0,0l0-0.1c0,0,0-0.1-0.1-0.1
	c-0.1,0-0.1,0-0.1,0.1c0,0,0,0.1,0,0.1h0l0-0.6c0,0,0.1,0,0.1-0.1c0,0,0.1,0,0.1-0.1c0,0,0-0.1,0-0.1l0.5,0c0,0,0,0,0,0.1
	c0,0,0,0,0,0c0,0,0,0,0.1,0.1c0,0,0.1,0,0.1,0c0,0,0,0.5,0,0.5c0,0,0,0.1,0,0.1c0,0-0.2,0-0.2,0l0,0.1h0.3v-0.8c0,0-0.1,0-0.1-0.1
	c0,0,0-0.1,0-0.1v0l0.5,0l0,0.1l-0.1,0l0,0.1l0,0.8h0.3c0,0,0-0.1,0-0.2c0,0-0.1,0-0.1,0c0,0-0.1,0.1-0.1,0.1l0,0v-0.6
	c0,0,0,0,0.1,0c0,0,0.2-0.1,0.2-0.2c0,0,0.1,0,0.1,0c0,0,0.3,0,0.3,0l0.1,0.1l0.1,0.1l0.1,0.1l0,0.6c0,0,0,0-0.1,0.1c0,0,0,0-0.1,0
	c0,0,0,0.1,0,0.1h0.2c0,0,0-0.1,0-0.1c0,0,0-0.7,0-0.7s-0.1,0-0.1,0c0,0-0.1,0-0.1,0l0,0l0.5,0c0,0,0,0,0,0.1c0,0-0.1,0-0.1,0
	c0,0-0.1,0-0.1,0c0,0,0,0.8,0,0.8c0,0,0,0,0,0.1c0.1,0,0.2,0,0.2,0c0,0,0.1,0,0.1,0c0,0,0-0.1,0-0.1c0,0,0,0-0.1-0.1
	c0,0-0.1,0-0.1,0c0,0,0,0.1,0,0.1c0,0-0.1,0-0.1,0c0,0,0-0.6,0-0.6c0,0,0.1-0.1,0.2-0.1c0,0,0.1-0.1,0.1-0.1c0,0,0.1,0,0.1,0
	c0.1,0,0.3,0,0.3,0c0,0,0,0.1,0,0.1c0,0,0.2,0.1,0.2,0.1c0,0,0,0.6,0,0.7c0,0-0.1,0-0.1,0c0,0,0,0,0,0.1c0,0,0.1,0,0.1,0h0.1
	c0,0,0.1,0,0.1,0c0,0,0-0.8,0-0.8c0,0,0,0-0.1-0.1c0,0-0.1,0-0.1,0c0,0,0-0.1,0-0.1c0,0,0.5,0,0.5,0l0,0.1c0,0-0.1,0-0.1,0
	c0,0,0,0,0,0c0,0,0,0.8,0,0.8c0,0,0,0,0.1,0c0,0,0.1,0,0.1,0c0,0,0.1,0,0.1,0c0,0,0,0,0,0c0-0.1,0-0.1,0-0.1c0,0-0.1,0-0.1,0
	c0,0,0,0.1,0,0.1c0,0-0.1,0-0.1,0c0,0,0-0.6,0-0.6c0,0,0.1-0.1,0.1-0.1c0,0,0,0,0.1,0c0.1-0.1,0.1-0.1,0.2-0.1c0.1,0,0.2,0,0.2,0
	c0,0,0.1,0,0.2,0.1c0,0,0.1,0.1,0.1,0.1c0,0,0,0,0.1,0.1c0,0,0,0.4,0,0.4c0,0,0,0,0.1,0c0,0,0.1,0,0.1,0c0,0,0-0.5,0-0.5
	c0,0,0-0.1,0-0.1c-0.1,0-0.1,0-0.1,0c0,0,0-0.1,0-0.1l0.3,0v0.9c0,0,0,0.1,0,0.1c0,0,0,0,0.1,0c0.1,0,0.2,0,0.2,0c0,0,0.1,0,0.1,0
	c0,0,0-0.1,0-0.1s0,0,0,0c0,0,0.1,0,0.1,0c0,0,0,0,0,0c0,0,0,0.2,0,0.2l-6.1-0.1c0,0,0,0,0-0.1c0,0,0,0,0.1,0c0,0,0.3,0,0.3,0
	c0,0,0-0.8,0-0.8C25,29.6,24.9,29.6,24.8,29.5C24.9,29.5,24.8,29.5,24.8,29.5L24.8,29.5z M25.7,30.4L25.7,30.4L25.7,30.4l0.1,0l0,0
	l0,0c0,0,0,0,0,0c0,0,0.1,0,0.1,0l0,0l0,0.1l0,0l-0.1,0l-0.1,0L25.7,30.4L25.7,30.4L25.7,30.4z M26.9,30.5L26.9,30.5L26.9,30.5
	L26.9,30.5l0.2-0.1l0,0c0,0,0.1,0,0.1,0c0,0,0.1,0,0.1,0v0.1l0,0L26.9,30.5L26.9,30.5z M28.4,30.4L28.4,30.4l-0.1,0c0,0,0,0,0,0
	c0,0-0.1,0-0.1,0c0,0,0,0,0,0c0,0,0,0,0,0c0,0,0.1,0,0.1,0c0,0,0.1,0,0.1,0S28.4,30.5,28.4,30.4C28.4,30.4,28.4,30.4,28.4,30.4
	L28.4,30.4z M29.7,30.4L29.7,30.4L29.7,30.4l-0.1,0l-0.1,0c0,0-0.1,0-0.1,0c0,0,0,0.1,0,0.1c0,0,0,0,0,0L29.7,30.4
	C29.6,30.5,29.7,30.5,29.7,30.4C29.7,30.5,29.7,30.4,29.7,30.4L29.7,30.4z M30,30.3L30,30.3l0.1,0l0,0.1l0,0.1l-0.1,0h-0.1l0,0
	l0-0.1c0,0,0.1,0,0.1,0C29.9,30.4,29.9,30.4,30,30.3L30,30.3L30,30.3L30,30.3z M23.2,29.5L23.2,29.5l1.4-0.1l0,0.1l0.1,0.1
	c0,0,0.1,0.1,0.1,0.1c0,0,0,0.1,0,0.1l0,0.6l0,0c0,0-0.2,0-0.2,0c0,0-0.1,0-0.1,0l0,0.1l0,0l-1.2,0c0,0,0-0.1,0-0.1
	c0,0-0.1-0.1-0.1-0.1l-0.2,0l-0.1,0l0-0.6l0.1-0.1L23.2,29.5L23.2,29.5L23.2,29.5z M17.6,29.2l-0.2-0.2l13.1,0.2l-0.2,0.1L17.6,29.2
	L17.6,29.2z M17.6,28.5l0.3-0.2L30,28.5l0.3,0.1l0-0.1l0-0.1l0,0l0.1,0l0,0.1l0,0.1l0,0l0.2,0.1h0.2l0,0L30.8,29l-13.6-0.2l-0.1-0.1
	l0-0.1h0.2l0.2-0.1l0-0.1l0,0v-0.1l0.1-0.1l0.1,0L17.6,28.5L17.6,28.5L17.6,28.5z M17.9,28.1L30,28.2l-0.1,0.2l-12-0.1L17.9,28.1
	L17.9,28.1z M18.8,27.6l0-1.2l0-0.1l10.3,0.1l0,1.2l0,0v0l0,0l0.1,0l0,0.1l0.1,0l0-0.1l0-0.1l0.1-0.1l0.1,0l0.1,0l0,0.1l0.1,0l0.1,0
	l0-0.1l0-0.1l0,0l0.1,0l0.1,0.1l0.1,0.1l-0.1,0.1l0,0l0,0l0.1,0l0,0.1h0l0.2,0l0.1,0l0,0.1L30.2,28h-1v0l-11.5-0.1l-0.2-0.1l0-0.1
	l0.1,0h0.2h0l0-0.1l0.1,0l0,0l0,0l-0.1-0.1l0.1-0.1l0.1-0.1l0.1,0l0,0l0,0.1v0.1l0.1,0l0.1,0l0-0.1l0.1,0l0.1,0l0.1,0.1l0,0.1l0,0.1
	h0.1l0-0.1L18.8,27.6L18.8,27.6L18.8,27.6z M18.7,25.8l0.1-0.1l0-0.1l0.1,0c0,0,0.1,0.1,0.1,0.1l-0.1,0.2l0,0.1l10.3,0.1V26L29,25.8
	l0-0.1l0.1-0.1l0.1,0l0,0.2c0,0,0.2,0.1,0.3,0.2c0,0,0,0.2,0,0.2l0,1.2l-0.1,0l0-1.1l-0.1,0l0,1.3l-0.1,0l0-1.2l-10.6-0.2l0,1.3
	l-0.1,0l0-0.1l0-1.2l-0.1,0l0,1.1l-0.1,0l0-1.2c0,0,0-0.1,0.1-0.2C18.5,25.8,18.6,25.8,18.7,25.8L18.7,25.8z M15.3,11.8l0.7,1.7
	l1.9-0.2l-1.4,1.2l0.7,1.7l-1.6-1l-1.4,1.2l0.4-1.8l-1.6-1l1.9-0.2L15.3,11.8L15.3,11.8z M21.6,17l-0.2,1.9l1.7,0.7L21.4,20
	l-0.2,1.9l-1-1.6l-1.8,0.4l1.2-1.4l-1-1.6l1.7,0.7L21.6,17L21.6,17z M26.4,17l1.2,1.4l1.7-0.8l-1,1.6l1.3,1.4l-1.8-0.4l-1,1.6
	L26.7,20l-1.8-0.4l1.7-0.7L26.4,17L26.4,17z M32.7,11.9l0.4,1.8l1.9,0.2l-1.6,1l0.4,1.8l-1.4-1.2l-1.6,1l0.7-1.7l-1.4-1.2l1.9,0.2
	L32.7,11.9L32.7,11.9z"/>
</svg>
